<svg width="50" height="44" viewBox="0 0 50 44" fill="none" xmlns="http://www.w3.org/2000/svg">
<path d="M34.1304 6.82519C35.2851 4.82519 38.1719 4.8252 39.3266 6.8252L45.448 17.4277C46.6027 19.4277 45.1593 21.9277 42.8499 21.9277H30.6071C28.2977 21.9277 26.8544 19.4277 28.0091 17.4277L34.1304 6.82519Z" fill="#686868"/>
<path d="M27.5933 6.22119C28.748 4.22119 31.6348 4.22119 32.7895 6.22119L42.309 22.7095C43.4637 24.7095 42.0203 27.2095 39.7109 27.2095H20.6719C18.3625 27.2095 16.9191 24.7095 18.0738 22.7095L27.5933 6.22119Z" fill="#BCBCBC"/>
<path d="M19.7559 5.125C20.9106 3.125 23.7974 3.125 24.9521 5.125L38.5006 28.5918C39.6553 30.5918 38.212 33.0918 35.9026 33.0918H8.80545C6.49605 33.0918 5.05266 30.5918 6.20737 28.5918L19.7559 5.125Z" fill="white"/>
</svg>
