<svg xmlns="http://www.w3.org/2000/svg" version="1.1" xmlns:xlink="http://www.w3.org/1999/xlink" xmlns:svgjs="http://svgjs.dev/svgjs" width="155.74" height="147.6"><svg version="1.0" id="SvgjsSvg1012" xmlns="http://www.w3.org/2000/svg" xmlns:xlink="http://www.w3.org/1999/xlink" viewBox="-12 -12 155.74 147.6">
<style type="text/css">
	.st0{fill:#4362EE;}
	.st1{fill:#3751C4;}
</style>
<g id="SvgjsG1011">
	<polygon class="st0" points="131.74,0 108.84,31.15 108.81,31.15 121.18,2.11"></polygon>
	<polygon class="st1" points="131.74,0 131.74,31.15 108.82,61.87 108.82,31.15 108.82,27.35 128.82,0.71"></polygon>
	<polygon class="st0" points="125.08,0 47.22,0 23.24,31.15 104.4,31.15 108.56,31.15 108.82,31.15 131.74,0"></polygon>
	<polygon class="st0" points="108.82,61.87 85.91,93.02 85.88,93.02 98.26,63.98"></polygon>
	<polygon class="st1" points="108.82,61.87 108.82,93.02 85.9,123.73 85.9,93.02 85.9,89.21 105.9,62.57"></polygon>
	<polygon class="st0" points="102.15,61.87 24.3,61.87 0.31,93.02 81.47,93.02 85.63,93.02 85.9,93.02 108.82,61.87"></polygon>
</g>
</svg><style>@media (prefers-color-scheme: light) { :root { filter: none; } }
@media (prefers-color-scheme: dark) { :root { filter: none; } }
</style></svg>