<?xml version="1.0" standalone="no"?>
<!DOCTYPE svg PUBLIC "-//W3C//DTD SVG 20010904//EN"
 "http://www.w3.org/TR/2001/REC-SVG-20010904/DTD/svg10.dtd">
<svg version="1.0" xmlns="http://www.w3.org/2000/svg"
 width="1130.000000pt" height="1130.000000pt" viewBox="0 0 1130.000000 1130.000000"
 preserveAspectRatio="xMidYMid meet">
<metadata>
Created by potrace 1.14, written by Peter Selinger 2001-2017
</metadata>
<g transform="translate(0.000000,1130.000000) scale(0.100000,-0.100000)"
fill="#000000" stroke="none">
<path d="M4573 9339 c-6 -6 -24 -12 -40 -12 -15 0 -22 -2 -15 -4 6 -3 12 -9
12 -14 0 -4 -6 -6 -14 -3 -8 3 -17 1 -21 -5 -3 -6 -12 -11 -18 -11 -7 0 -6 4
3 10 9 6 10 10 3 10 -6 0 -15 -5 -18 -11 -4 -6 -14 -8 -22 -4 -12 4 -13 2 -5
-8 8 -10 7 -13 -6 -14 -9 0 -27 -3 -39 -6 -13 -3 -26 -1 -29 5 -5 7 -2 8 6 3
9 -6 11 -4 6 4 -9 14 -21 6 -21 -12 0 -7 -7 -12 -15 -12 -21 -1 -40 -14 -40
-28 0 -7 4 -6 11 3 7 10 9 11 7 2 -2 -8 -6 -12 -9 -10 -3 2 -14 -4 -25 -12
-18 -14 -18 -14 -5 3 7 9 9 17 3 17 -13 0 -24 -29 -15 -43 5 -9 3 -9 -8 -1
-11 9 -17 9 -27 -2 -12 -13 -8 -18 11 -15 5 1 6 -3 2 -9 -4 -7 -13 -7 -27 1
-15 8 -19 8 -13 -1 8 -14 -22 -50 -43 -50 -9 0 -12 -6 -8 -16 5 -14 4 -15 -9
-4 -9 8 -15 8 -15 2 0 -6 -9 -14 -20 -17 -11 -3 -20 -11 -20 -17 0 -6 6 -6 15
2 9 7 18 10 22 6 3 -3 2 -6 -3 -6 -5 0 -20 -9 -34 -20 -25 -19 -25 -19 -2 -15
13 2 20 0 16 -6 -3 -6 -8 -8 -11 -5 -8 8 -43 -13 -43 -26 0 -6 7 -5 18 3 15
13 16 12 3 -4 -8 -10 -21 -15 -29 -12 -13 5 -13 3 -1 -12 12 -15 12 -16 -5
-10 -16 6 -17 5 -7 -7 9 -11 9 -16 0 -22 -8 -4 -9 -3 -5 4 4 8 2 10 -8 6 -9
-3 -12 -12 -9 -21 4 -11 2 -14 -5 -9 -7 4 -12 1 -12 -9 0 -9 -4 -13 -10 -10
-5 3 -10 1 -10 -4 0 -6 5 -11 11 -11 5 0 7 -5 4 -10 -4 -6 -12 -7 -18 -3 -7 4
-6 -1 2 -10 12 -15 12 -17 -2 -11 -12 4 -15 1 -12 -15 2 -11 -1 -24 -7 -27 -7
-4 -8 -2 -4 4 4 7 2 12 -3 12 -6 0 -11 -11 -11 -25 0 -14 -9 -34 -20 -45 -11
-11 -18 -25 -16 -32 1 -7 1 -10 -1 -6 -2 4 -11 4 -19 1 -12 -4 -12 -8 3 -19
10 -7 15 -14 11 -15 -5 -1 -12 -3 -18 -4 -5 -1 -13 -3 -17 -4 -5 -1 -1 -6 7
-11 12 -8 10 -10 -10 -10 -25 -1 -25 -1 -2 -10 12 -5 22 -11 22 -14 0 -2 -10
-2 -22 1 -19 4 -20 3 -8 -7 13 -10 11 -11 -7 -7 -19 4 -21 2 -13 -19 6 -14 6
-26 -1 -29 -5 -4 -6 -11 -3 -17 4 -6 3 -8 -3 -5 -12 8 -55 -21 -48 -33 3 -4 2
-10 -2 -13 -5 -2 -1 -2 7 0 11 2 11 0 -2 -10 -10 -8 -15 -17 -11 -20 3 -4 1
-7 -5 -7 -6 0 -9 -9 -7 -19 3 -15 -1 -18 -13 -14 -14 5 -15 3 -4 -8 6 -7 12
-17 12 -23 0 -5 -9 1 -19 13 -19 22 -20 22 -18 3 0 -12 5 -18 11 -15 5 4 6 1
2 -6 -5 -7 -15 -10 -24 -6 -9 3 -13 3 -9 -1 4 -4 1 -14 -6 -22 -9 -13 -9 -14
1 -8 6 4 12 2 12 -3 0 -6 -10 -11 -22 -11 -21 0 -21 0 -2 -15 18 -15 18 -15 0
-8 -16 5 -18 3 -14 -14 3 -12 0 -20 -8 -21 -8 -1 -21 -3 -29 -4 -8 -1 -12 -5
-9 -10 3 -5 15 -6 27 -3 12 4 5 -4 -15 -17 -34 -21 -36 -25 -20 -35 16 -11 16
-12 -2 -12 -12 -1 -16 -6 -12 -17 4 -9 2 -13 -5 -8 -8 4 -9 -1 -4 -16 5 -15 4
-20 -4 -16 -6 4 -11 2 -11 -4 0 -6 -4 -9 -8 -6 -11 7 -29 -25 -26 -46 1 -10
-2 -18 -7 -18 -5 0 -9 -4 -9 -10 0 -5 8 -7 18 -4 14 5 15 4 2 -5 -8 -6 -24 -8
-35 -5 -17 4 -18 4 -3 -5 13 -9 14 -15 5 -35 -8 -16 -14 -21 -19 -13 -5 8 -8
6 -8 -6 0 -12 -4 -16 -12 -11 -8 5 -7 0 2 -11 9 -11 10 -16 3 -11 -19 11 -39
-4 -22 -16 10 -7 8 -8 -8 -5 -15 3 -20 1 -16 -9 2 -7 12 -10 21 -7 14 4 15 3
2 -5 -10 -8 -18 -8 -27 0 -11 9 -12 6 -3 -17 10 -25 9 -27 -5 -15 -14 11 -16
11 -13 -1 2 -8 -3 -13 -10 -11 -8 1 -11 -2 -7 -7 3 -6 13 -8 23 -5 15 5 15 4
-1 -6 -10 -6 -14 -16 -10 -23 4 -8 1 -7 -9 1 -13 10 -18 10 -24 1 -5 -8 -3 -9
6 -4 8 5 11 3 8 -6 -3 -8 -11 -13 -17 -11 -9 2 -9 -3 0 -19 8 -15 8 -19 0 -15
-6 4 -11 2 -11 -4 0 -6 -5 -8 -11 -4 -8 4 -8 0 0 -15 10 -17 9 -20 -4 -15 -11
4 -15 0 -15 -16 0 -14 -4 -19 -12 -14 -10 6 -10 5 0 -8 10 -12 10 -18 -2 -28
-9 -6 -19 -9 -25 -6 -5 4 -7 -3 -3 -16 4 -18 2 -20 -14 -15 -18 7 -18 7 0 -8
19 -15 19 -15 -5 -16 l-24 0 23 -9 c27 -12 29 -20 2 -13 -12 3 -20 0 -20 -6 0
-7 5 -9 12 -5 7 4 8 3 4 -4 -4 -7 -15 -12 -24 -12 -15 0 -15 -2 -2 -10 13 -8
13 -10 -1 -10 -9 0 -23 -8 -30 -17 -13 -16 -12 -17 4 -4 10 8 17 9 17 3 0 -6
-9 -16 -20 -22 -11 -6 -20 -16 -20 -22 0 -6 7 -5 18 3 15 13 16 12 3 -4 -8
-10 -21 -15 -29 -12 -12 4 -12 3 -3 -9 9 -11 9 -15 -1 -19 -10 -4 -10 -8 2
-17 13 -10 13 -11 -1 -7 -21 7 -39 -11 -31 -31 4 -11 1 -14 -11 -9 -15 6 -16
4 -6 -15 9 -18 9 -20 -4 -15 -11 4 -15 1 -12 -14 2 -12 -4 -23 -18 -30 -21
-10 -21 -10 -3 5 11 9 15 16 9 16 -17 0 -36 -27 -23 -35 5 -3 10 -12 10 -18 0
-9 -2 -9 -8 -1 -4 7 -15 8 -27 3 -14 -5 -16 -8 -4 -8 19 -1 21 -31 3 -31 -7 0
-18 -10 -25 -21 -6 -12 -7 -19 -2 -16 5 4 10 0 10 -7 0 -9 -7 -12 -16 -8 -14
5 -14 4 -1 -13 9 -11 10 -16 3 -11 -22 12 -36 -4 -17 -19 16 -11 15 -12 -9
-10 -15 2 -25 -1 -21 -6 3 -5 10 -6 16 -3 7 5 8 2 4 -5 -5 -7 -14 -10 -20 -8
-7 3 -13 0 -13 -6 0 -7 -4 -21 -9 -31 -5 -14 -4 -17 4 -12 7 4 12 3 12 -2 0
-6 -7 -13 -16 -16 -10 -4 -13 -2 -8 7 4 6 -2 3 -14 -7 -24 -21 -31 -36 -8 -17
9 8 16 8 20 2 4 -5 -3 -13 -15 -16 -13 -4 -18 -12 -15 -22 4 -11 2 -13 -9 -9
-8 3 -15 1 -15 -4 0 -6 6 -10 13 -10 9 0 8 -3 -2 -9 -8 -5 -10 -14 -5 -22 6
-12 5 -12 -8 -1 -14 11 -16 10 -14 -12 2 -15 -4 -31 -13 -38 -14 -11 -14 -11
-6 2 6 9 2 7 -9 -5 -10 -11 -20 -19 -22 -17 -11 7 -13 -1 -4 -23 9 -24 8 -25
-11 -14 -17 9 -20 8 -13 -3 13 -20 14 -39 1 -31 -6 4 -8 0 -4 -10 4 -12 1 -15
-14 -12 -11 2 -17 0 -14 -5 3 -4 2 -10 -2 -13 -5 -2 -3 -2 4 -1 7 2 15 -2 19
-8 4 -6 3 -8 -4 -4 -6 3 -13 -3 -17 -14 -3 -11 -11 -20 -17 -20 -6 0 -5 7 3
18 11 14 11 15 -1 5 -7 -7 -15 -23 -18 -35 -6 -38 -7 -42 -20 -66 -7 -12 -17
-20 -21 -17 -5 3 -11 -2 -15 -10 -3 -8 0 -15 7 -15 6 0 1 -7 -11 -16 -12 -8
-22 -23 -22 -33 0 -9 -7 -26 -16 -37 -8 -10 -13 -14 -10 -7 4 6 3 14 -1 16 -5
3 -9 -8 -9 -24 -1 -17 2 -26 9 -22 6 3 7 1 3 -6 -4 -6 -12 -9 -17 -6 -5 4 -9
1 -9 -5 0 -6 -5 -8 -12 -4 -9 5 -9 2 1 -9 12 -15 11 -17 -5 -17 -16 0 -17 -2
-4 -10 13 -8 12 -10 -3 -10 -10 0 -15 -4 -12 -10 3 -5 1 -10 -6 -10 -7 0 -9
-10 -7 -25 3 -13 2 -22 -2 -20 -5 3 -11 -2 -14 -11 -3 -8 -10 -13 -15 -9 -6 3
-8 -4 -6 -16 3 -17 1 -19 -10 -9 -24 20 -39 -19 -22 -55 10 -18 9 -19 -8 -5
-17 14 -18 13 -12 -2 3 -10 2 -18 -3 -18 -6 0 -10 5 -10 10 0 6 -5 10 -10 10
-6 0 -3 -11 6 -24 15 -25 15 -25 -13 -21 -15 2 -22 2 -15 -1 6 -3 9 -11 6 -16
-4 -7 -2 -8 4 -4 7 4 12 2 12 -3 0 -6 -8 -11 -17 -11 -15 0 -16 -2 -3 -10 13
-8 12 -10 -4 -10 -16 0 -17 -2 -5 -17 13 -15 12 -15 -11 -3 -23 12 -24 12 -11
-3 12 -15 11 -17 -5 -17 -17 0 -17 -1 2 -15 19 -15 19 -15 0 -8 -15 5 -18 3
-13 -10 3 -9 1 -19 -5 -23 -7 -5 -8 -2 -3 6 6 9 4 11 -4 6 -7 -5 -10 -14 -7
-22 3 -9 -1 -14 -12 -15 -10 0 -12 -3 -4 -6 6 -2 10 -9 7 -13 -3 -5 -11 -7
-19 -4 -7 3 -13 -2 -13 -10 0 -8 4 -13 9 -10 4 3 8 1 8 -4 0 -5 -9 -12 -21
-15 -14 -4 -18 -10 -13 -18 5 -9 2 -10 -9 -6 -11 4 -14 2 -11 -8 3 -8 13 -11
22 -8 13 4 12 2 -3 -10 -11 -8 -23 -13 -26 -11 -4 2 -5 -6 -2 -18 4 -22 4 -22
-11 -4 -15 18 -15 17 -12 -11 3 -24 -3 -39 -26 -64 -17 -19 -25 -27 -19 -17 9
12 9 18 0 24 -7 4 -9 3 -5 -4 3 -6 1 -14 -4 -17 -8 -5 -5 -14 6 -26 17 -19 17
-19 1 -13 -12 4 -17 2 -15 -6 2 -7 -4 -15 -12 -17 -13 -4 -13 -3 0 7 13 10 13
11 0 7 -8 -2 -14 -12 -12 -22 2 -9 -6 -24 -17 -32 -18 -12 -19 -18 -9 -36 10
-20 9 -21 -5 -9 -13 11 -15 10 -13 -12 3 -23 1 -24 -18 -14 l-21 11 20 -23
c11 -13 14 -20 6 -15 -11 6 -13 4 -8 -9 4 -10 3 -15 -3 -11 -6 3 -10 1 -10 -5
0 -6 -4 -9 -9 -5 -5 3 -13 0 -17 -6 -4 -7 -3 -9 4 -5 7 4 10 -1 9 -14 -1 -11
-7 -20 -14 -20 -6 0 -15 -5 -19 -12 -4 -6 -3 -8 2 -5 6 3 11 -3 11 -14 2 -17
0 -18 -13 -4 -20 19 -30 20 -14 0 9 -10 9 -15 1 -15 -6 0 -11 -5 -11 -11 0 -5
4 -8 8 -5 5 3 9 -1 9 -9 0 -15 -18 -16 -30 0 -5 6 -7 4 -6 -5 3 -30 -1 -41
-13 -34 -10 6 -10 4 0 -7 17 -18 15 -29 -5 -29 -15 0 -16 2 -3 10 8 5 10 10 4
10 -18 0 -24 -12 -13 -26 7 -9 4 -16 -12 -27 -11 -9 -18 -20 -15 -26 4 -5 2
-12 -4 -16 -6 -4 -8 -10 -6 -14 3 -4 -1 -8 -9 -8 -12 0 -12 4 2 21 18 21 18
21 -4 2 -23 -19 -25 -35 -8 -49 6 -5 0 -6 -12 -2 -18 5 -21 3 -18 -14 2 -13
-1 -21 -10 -21 -19 0 -28 -17 -14 -26 8 -5 9 -3 4 6 -6 9 -4 11 4 6 9 -6 9
-12 -3 -25 -9 -10 -13 -21 -9 -26 5 -4 2 -5 -5 -1 -11 6 -11 11 0 23 12 15 11
15 -10 2 -12 -8 -18 -15 -12 -17 14 -5 12 -32 -3 -32 -7 0 -18 -9 -25 -21 -8
-12 -9 -18 -3 -15 5 4 12 2 16 -4 3 -6 -4 -10 -17 -10 -17 0 -19 -3 -9 -9 11
-7 11 -9 0 -14 -12 -5 -11 -8 1 -17 13 -10 12 -11 -4 -6 -14 5 -17 2 -12 -10
5 -13 3 -14 -7 -6 -10 8 -13 6 -14 -10 -1 -12 -9 -26 -18 -31 -13 -7 -14 -11
-3 -25 11 -14 10 -15 -6 -9 -17 7 -17 6 -5 -10 8 -9 9 -14 3 -10 -15 9 -42
-24 -39 -46 2 -10 -3 -21 -11 -24 -8 -3 -14 -13 -14 -22 -1 -14 -3 -13 -15 3
-18 23 -19 17 -5 -20 9 -23 9 -25 -4 -15 -9 8 -16 8 -20 2 -4 -5 2 -15 11 -21
16 -10 16 -11 1 -6 -10 3 -20 1 -23 -4 -4 -6 -1 -10 6 -10 9 0 9 -4 -1 -15 -6
-8 -8 -20 -4 -27 5 -8 1 -8 -11 2 -17 14 -18 13 -12 -4 5 -14 3 -17 -8 -12 -8
3 -14 2 -14 -2 1 -4 1 -16 0 -27 -1 -17 -3 -18 -11 -5 -5 8 -10 10 -10 5 0 -6
6 -17 13 -24 10 -11 9 -13 -5 -8 -13 4 -16 1 -13 -14 3 -16 0 -19 -13 -14 -14
5 -15 4 -5 -6 18 -18 16 -34 -2 -19 -18 15 -20 -1 -3 -19 7 -8 9 -12 3 -9 -16
7 -59 -39 -44 -48 8 -5 9 -3 4 6 -5 9 -4 11 3 6 17 -11 15 -15 -13 -26 -21 -8
-23 -13 -15 -34 7 -20 6 -24 -5 -19 -8 3 -13 9 -10 13 3 5 1 11 -4 14 -4 3 -8
-2 -8 -12 0 -39 -3 -53 -11 -48 -5 3 -9 -2 -9 -10 0 -9 6 -13 14 -10 8 4 11 1
7 -5 -3 -6 -14 -9 -24 -6 -14 3 -17 1 -13 -11 5 -11 3 -13 -8 -7 -12 8 -12 6
0 -8 10 -13 10 -17 1 -17 -7 0 -10 -7 -6 -17 6 -14 3 -14 -16 3 -12 10 -18 12
-12 4 15 -21 25 -52 15 -46 -5 3 -12 -1 -15 -10 -3 -9 -11 -12 -18 -8 -8 5 -7
0 2 -11 12 -15 12 -17 1 -10 -11 6 -13 3 -8 -16 6 -23 6 -24 -10 -4 -15 20
-15 20 -10 -2 5 -20 3 -22 -16 -12 -18 9 -20 9 -10 -1 10 -11 9 -16 -5 -27 -9
-8 -11 -12 -4 -8 17 8 15 -7 -3 -31 -11 -14 -14 -15 -9 -3 3 10 0 20 -6 24 -6
3 -10 3 -9 -2 5 -26 -2 -63 -11 -58 -10 6 -12 -1 -13 -43 0 -17 -3 -20 -12
-12 -10 8 -15 8 -21 -1 -4 -8 -3 -9 4 -5 21 13 9 -44 -13 -62 -20 -17 -20 -17
-1 6 11 12 14 22 9 22 -6 0 -14 -7 -17 -16 -3 -8 -11 -12 -17 -8 -8 5 -9 3 -3
-7 14 -23 13 -39 -2 -39 -8 0 -14 -5 -14 -11 0 -5 -5 -7 -12 -3 -6 4 -8 3 -5
-4 9 -14 -3 -43 -14 -36 -5 3 -6 -2 -2 -11 5 -14 8 -14 15 -3 8 10 9 10 5 -2
-2 -8 -11 -14 -20 -12 -11 2 -15 -2 -11 -12 3 -8 0 -17 -7 -22 -8 -5 -10 -3
-4 6 5 8 4 11 -3 7 -5 -4 -9 -18 -8 -32 2 -15 -1 -22 -7 -18 -7 4 -8 -1 -3
-13 4 -10 4 -15 0 -11 -4 4 -14 1 -23 -6 -14 -10 -14 -10 -3 5 11 13 11 18 0
24 -7 4 -10 4 -6 -1 4 -4 3 -14 -2 -21 -8 -8 -6 -17 6 -28 15 -16 14 -16 -10
-12 -15 3 -24 1 -21 -4 3 -5 1 -12 -5 -15 -8 -5 -8 -11 0 -20 7 -9 6 -16 -7
-26 -16 -13 -17 -12 -4 4 7 9 9 17 3 17 -5 0 -15 -14 -22 -30 -7 -17 -20 -35
-29 -40 -9 -5 -11 -10 -4 -10 6 0 19 10 27 22 9 12 18 20 20 17 3 -3 -6 -17
-19 -31 -13 -14 -21 -29 -17 -34 4 -4 -2 -4 -12 0 -20 7 -20 7 -1 -14 19 -21
19 -21 -10 -10 -28 9 -29 9 -11 -5 17 -13 18 -15 3 -15 -18 0 -19 -19 -2 -33
6 -5 0 -6 -12 -2 -12 3 -25 1 -29 -6 -4 -8 -3 -9 4 -5 7 4 12 1 12 -9 0 -9 -4
-13 -10 -10 -9 5 -15 -24 -11 -48 1 -5 -3 -6 -9 -2 -6 3 -7 12 -3 18 4 7 0 6
-10 -2 -9 -7 -14 -18 -10 -25 11 -17 12 -37 2 -30 -5 3 -6 10 -3 16 4 7 2 8
-4 4 -6 -4 -8 -14 -5 -23 5 -12 3 -14 -8 -8 -8 4 -11 5 -7 0 4 -4 2 -15 -5
-23 -8 -11 -8 -14 0 -9 6 4 14 3 17 -2 4 -5 -5 -8 -19 -7 -13 2 -22 0 -20 -5
3 -4 2 -9 -2 -12 -5 -2 -3 -3 3 -1 6 1 11 -4 11 -11 0 -7 -8 -12 -18 -10 -13
3 -16 -1 -12 -12 5 -12 3 -14 -8 -8 -12 8 -12 6 0 -8 12 -15 11 -17 -10 -17
-17 0 -20 -3 -11 -9 10 -6 8 -10 -8 -14 -12 -3 -19 -10 -15 -16 3 -6 2 -11 -4
-11 -6 0 -7 -7 -4 -17 4 -11 3 -14 -5 -9 -7 4 -12 1 -12 -8 0 -9 -5 -16 -11
-16 -6 0 -8 -7 -5 -16 3 -8 2 -13 -3 -10 -5 3 -12 -1 -15 -10 -3 -8 -2 -13 2
-10 5 3 9 -1 9 -8 0 -8 -8 -12 -21 -9 -17 4 -18 3 -6 -6 13 -10 13 -11 0 -12
-8 -1 -19 -1 -23 0 -5 1 -6 -3 -2 -9 3 -6 11 -8 16 -5 5 4 9 1 9 -4 0 -6 -8
-11 -17 -11 -15 0 -16 -2 -3 -10 13 -9 13 -10 0 -11 -8 -1 -18 -1 -21 -1 -3 1
-5 -10 -3 -24 1 -15 -2 -22 -8 -18 -7 5 -9 -2 -6 -18 4 -21 2 -25 -16 -21 -17
4 -18 3 -6 -6 10 -7 11 -11 3 -11 -7 0 -13 -5 -13 -11 0 -5 5 -7 12 -3 7 4 8
3 4 -5 -4 -6 -12 -9 -17 -6 -5 4 -9 1 -9 -5 0 -6 -4 -9 -9 -5 -5 3 -12 1 -15
-4 -4 -5 -1 -13 5 -17 8 -5 9 -3 4 6 -5 9 -4 11 3 6 9 -5 9 -13 2 -27 -6 -10
-13 -19 -16 -19 -3 0 -2 5 2 12 4 7 3 8 -5 4 -9 -6 -9 -11 -1 -21 13 -15 -5
-16 -29 -1 -9 6 -8 0 3 -17 16 -24 16 -26 -2 -39 -10 -7 -18 -21 -16 -31 1 -9
-2 -14 -8 -11 -16 10 -28 -18 -15 -35 9 -12 9 -13 0 -7 -8 4 -13 1 -13 -9 0
-10 5 -13 12 -9 7 4 8 3 4 -4 -4 -7 -15 -12 -24 -12 -10 0 -13 -3 -6 -8 6 -4
14 -16 17 -27 l7 -20 -16 20 c-16 19 -16 19 -12 -8 4 -20 2 -25 -7 -17 -8 7
-12 5 -12 -5 0 -14 11 -19 30 -16 5 1 6 -3 2 -9 -3 -6 -10 -8 -15 -5 -4 3 -13
-2 -20 -10 -11 -13 -10 -14 3 -10 23 9 32 -14 11 -30 -18 -14 -18 -14 0 -15
11 0 16 -3 13 -7 -4 -3 -1 -13 5 -22 10 -13 10 -14 -2 -3 -21 18 -35 15 -19
-5 12 -14 12 -16 0 -9 -9 6 -12 5 -9 -5 3 -8 11 -13 17 -11 6 1 11 -2 11 -8 0
-5 -6 -10 -13 -10 -8 0 -14 -12 -14 -30 0 -16 4 -30 8 -30 4 0 10 -7 13 -16 5
-13 4 -14 -7 -6 -11 9 -13 7 -11 -11 4 -33 4 -33 13 -19 7 11 9 11 14 -1 4
-11 -1 -14 -18 -12 -14 1 -22 -2 -19 -6 3 -5 15 -9 27 -9 18 0 19 -2 7 -10
-12 -8 -12 -10 5 -10 17 0 17 -2 5 -10 -14 -9 -7 -14 13 -11 5 1 6 -3 3 -8 -4
-5 2 -14 11 -20 10 -6 13 -11 7 -11 -7 0 -11 -16 -11 -40 1 -24 4 -35 9 -27 6
9 8 9 8 -1 0 -8 5 -10 13 -6 8 5 8 2 -2 -9 -12 -15 -11 -17 3 -17 13 0 16 -7
12 -30 -4 -31 7 -49 20 -29 4 7 3 9 -3 6 -5 -3 -10 0 -10 8 0 11 4 12 13 4 8
-6 13 -14 12 -17 -3 -16 15 -42 30 -42 8 0 12 -3 9 -7 -4 -3 1 -12 11 -20 16
-13 16 -14 0 -9 -12 3 -15 1 -11 -10 3 -7 13 -14 22 -14 23 0 41 -20 41 -44 0
-18 2 -19 11 -6 9 12 10 10 6 -8 -5 -19 -3 -21 9 -11 11 9 14 8 14 -4 0 -20
24 -28 41 -14 7 7 5 2 -5 -10 -17 -21 -17 -21 3 -16 13 3 21 1 21 -6 0 -7 -6
-9 -12 -6 -7 4 -5 0 4 -8 10 -8 14 -18 10 -22 -4 -5 -1 -5 6 -1 7 4 10 11 7
16 -3 5 -1 12 5 15 6 4 10 3 9 -2 -3 -19 2 -33 12 -33 5 0 7 5 4 10 -3 6 -1
10 4 10 6 0 11 -9 11 -20 0 -13 7 -20 20 -20 11 0 20 -4 20 -10 0 -5 9 -10 20
-10 11 0 20 -4 20 -10 0 -5 7 -7 15 -4 11 5 14 2 9 -12 -6 -15 -4 -17 6 -7 9
8 20 9 37 2 14 -5 29 -7 34 -3 5 3 12 -1 15 -10 3 -8 13 -17 21 -20 12 -5 13
-4 5 7 -9 10 -8 14 3 14 8 0 15 -4 15 -8 0 -4 7 -10 16 -13 15 -6 15 -4 3 11
-9 11 -10 14 -2 9 7 -4 21 -9 30 -11 10 -2 26 -6 36 -10 14 -6 16 -3 11 11 -3
11 -2 15 3 9 15 -18 57 -50 50 -39 -9 16 18 25 32 11 9 -9 16 -9 31 1 14 8 21
9 26 0 4 -7 3 -8 -4 -4 -8 5 -10 1 -5 -10 4 -11 8 -13 11 -6 5 16 34 15 51 0
9 -9 12 -9 7 -1 -10 18 37 21 51 3 10 -13 11 -12 10 4 -1 10 5 21 13 23 13 4
13 3 0 -6 -12 -9 -10 -11 12 -11 15 0 29 4 32 9 3 4 17 6 31 4 14 -3 22 -10
18 -16 -3 -6 -1 -7 5 -3 7 4 12 1 12 -6 0 -10 2 -10 9 1 5 8 16 11 25 8 23 -9
31 -8 31 2 0 5 3 13 8 17 4 4 7 1 7 -7 0 -15 54 -19 68 -4 4 5 0 5 -8 0 -8 -5
-12 -4 -7 0 13 15 36 14 30 -1 -4 -10 0 -12 11 -8 9 3 13 10 10 15 -3 5 10 1
29 -10 25 -14 34 -15 34 -5 0 7 -5 10 -10 7 -6 -3 -7 -1 -3 5 10 17 36 3 28
-16 -5 -15 -4 -15 12 0 18 19 41 25 31 9 -3 -5 0 -13 6 -17 8 -5 9 -3 4 6 -6
10 -1 12 19 8 21 -4 26 -2 21 10 -4 12 -3 13 10 2 8 -7 12 -17 8 -23 -3 -6 -1
-7 6 -3 6 4 9 11 6 16 -3 5 -1 11 5 15 5 3 10 0 10 -8 0 -16 34 -13 57 5 9 7
11 4 8 -14 -4 -22 -3 -22 10 -5 10 14 18 16 31 9 10 -6 29 -6 46 -2 27 8 32 6
29 -13 -1 -5 3 -6 9 -2 5 3 10 14 10 23 0 13 2 13 16 -4 12 -15 14 -15 11 -2
-4 11 -1 15 11 13 9 -2 21 -4 25 -4 5 -1 5 -6 1 -12 -4 -8 -9 -7 -15 2 -5 8
-9 9 -9 3 0 -22 13 -23 41 -4 20 15 30 17 35 9 4 -8 3 -9 -4 -5 -8 5 -10 1 -5
-9 4 -11 8 -13 13 -5 4 6 23 9 44 7 31 -4 36 -2 31 12 -3 9 4 5 15 -9 11 -14
18 -18 14 -9 -6 20 11 34 22 18 5 -8 3 -9 -6 -4 -8 5 -11 4 -6 -3 4 -6 13 -9
21 -6 8 4 12 11 9 16 -4 6 6 2 22 -8 15 -11 25 -14 21 -8 -13 22 22 23 38 1 8
-12 15 -16 15 -9 0 13 26 12 49 -2 9 -6 12 -5 8 1 -4 6 4 13 18 15 18 4 25 1
26 -11 0 -11 3 -8 9 7 5 12 12 22 15 22 4 0 4 -4 1 -9 -3 -5 1 -12 10 -15 11
-4 15 -2 11 8 -4 9 0 13 11 11 9 -2 21 -4 25 -4 5 -1 5 -6 1 -12 -4 -8 -9 -7
-15 2 -5 8 -9 9 -9 3 0 -20 12 -23 35 -8 21 14 24 14 34 -3 6 -10 11 -13 11
-6 0 7 15 10 41 8 31 -2 39 0 35 10 -3 9 0 12 9 8 8 -3 13 -8 10 -12 -2 -4 9
-6 24 -3 16 2 38 -1 50 -7 17 -9 20 -9 15 3 -9 24 14 28 36 6 11 -11 20 -16
20 -10 0 11 28 9 49 -4 9 -6 12 -5 7 2 -10 17 37 19 52 2 11 -13 11 -13 6 1
-3 10 0 20 7 25 7 4 10 3 6 -3 -4 -6 0 -14 9 -17 11 -4 15 -2 11 8 -4 9 0 13
11 11 9 -2 21 -4 25 -4 5 -1 5 -6 1 -12 -4 -8 -9 -7 -15 2 -5 8 -9 9 -9 3 0
-22 13 -23 41 -4 20 15 30 17 35 9 4 -8 3 -9 -4 -5 -8 5 -10 1 -5 -10 4 -11 8
-13 11 -6 5 16 34 15 51 0 9 -9 12 -9 7 -1 -10 18 37 21 51 3 10 -13 11 -12
10 4 -1 10 5 21 13 23 13 4 13 3 0 -6 -12 -9 -10 -11 12 -11 15 0 29 4 32 9 3
4 17 6 31 4 14 -3 22 -10 18 -16 -3 -6 -1 -7 5 -3 7 4 12 1 12 -6 0 -10 2 -10
9 1 5 8 15 12 22 9 23 -9 34 -8 34 1 0 5 3 13 8 17 4 4 7 1 7 -7 0 -12 10 -14
48 -9 35 4 50 1 59 -10 10 -13 11 -12 10 4 -1 10 5 21 13 23 13 4 13 3 0 -6
-12 -9 -10 -11 12 -11 15 0 29 4 32 9 3 4 17 6 31 4 14 -3 22 -10 18 -16 -3
-6 -1 -7 5 -3 7 4 12 1 12 -6 0 -10 2 -10 9 1 6 9 16 11 27 7 24 -9 29 -8 29
3 0 5 3 13 8 17 4 4 7 0 7 -8 0 -17 33 -14 57 4 9 7 11 4 8 -14 -4 -22 -3 -22
10 -5 10 14 18 16 31 9 10 -6 29 -6 46 -2 27 8 32 6 29 -13 -1 -5 3 -6 9 -2 5
3 10 14 10 23 0 13 2 13 16 -4 12 -15 14 -15 11 -2 -4 11 -1 15 11 13 9 -2 21
-4 25 -4 5 -1 5 -6 1 -12 -4 -8 -9 -7 -15 2 -5 8 -9 9 -9 3 0 -22 13 -23 41
-4 20 15 30 17 35 9 4 -8 3 -9 -4 -5 -8 5 -10 1 -5 -9 4 -11 8 -13 13 -5 4 6
23 9 44 7 31 -4 36 -2 31 12 -3 9 4 5 15 -9 11 -14 18 -18 14 -9 -6 20 11 34
22 18 5 -8 3 -9 -6 -4 -8 5 -11 4 -6 -3 4 -6 13 -9 21 -6 8 4 12 11 9 16 -4 6
6 2 22 -8 15 -11 25 -13 21 -7 -5 7 -5 13 0 14 4 0 16 2 25 4 10 2 21 -2 25
-7 3 -6 2 -8 -4 -5 -5 3 -10 0 -10 -7 0 -11 4 -12 19 -3 14 9 23 9 39 -1 12
-8 18 -9 15 -4 -3 5 5 12 19 14 18 4 25 1 26 -11 0 -11 3 -8 9 7 5 12 12 22
15 22 4 0 4 -4 1 -9 -3 -5 1 -12 10 -15 11 -4 15 -2 11 8 -4 9 0 13 11 11 9
-2 21 -4 25 -4 5 -1 5 -6 1 -12 -4 -8 -9 -7 -15 2 -5 8 -9 9 -9 3 0 -20 12
-23 35 -8 21 14 24 14 34 -3 6 -10 11 -13 11 -6 0 7 15 10 41 8 31 -2 39 0 35
10 -3 9 0 12 9 8 8 -3 13 -8 10 -12 -2 -4 9 -6 24 -3 16 2 39 -1 51 -8 15 -8
20 -8 16 -1 -13 21 3 29 33 18 17 -6 27 -15 24 -21 -4 -5 -1 -6 6 -2 7 5 10
15 6 23 -5 13 -3 14 10 3 16 -13 87 -21 79 -9 -2 4 3 10 12 13 8 3 13 2 10 -3
-3 -5 1 -12 10 -15 11 -4 15 -2 11 8 -6 14 5 15 35 2 9 -4 21 -5 27 -2 5 4 14
-2 20 -11 6 -10 11 -12 11 -5 0 8 10 11 29 7 17 -3 33 0 37 7 5 7 3 8 -7 3 -8
-5 -10 -4 -6 0 16 18 35 13 29 -8 -5 -19 -4 -19 10 -6 9 7 14 17 11 22 -2 4
11 -1 30 -12 25 -14 34 -15 34 -5 0 7 -5 10 -10 7 -6 -3 -7 -1 -3 5 10 17 36
3 28 -16 -5 -15 -4 -15 12 1 18 18 41 24 31 8 -3 -5 0 -13 6 -17 8 -5 9 -3 4
6 -6 10 -1 12 19 8 21 -4 26 -2 21 10 -4 12 -3 13 10 2 8 -7 12 -17 8 -23 -3
-6 -1 -7 6 -3 6 4 9 11 6 16 -3 5 -1 11 5 15 5 3 10 0 10 -7 0 -14 55 -17 68
-3 4 5 0 5 -8 0 -8 -5 -12 -4 -7 0 13 15 36 14 30 -1 -4 -10 0 -12 11 -8 9 3
13 10 10 15 -3 5 10 1 29 -10 25 -14 34 -15 34 -5 0 7 -5 10 -10 7 -6 -3 -7
-1 -3 5 10 17 36 3 28 -16 -5 -15 -4 -15 12 0 18 19 41 25 31 9 -3 -5 0 -13 6
-17 8 -5 9 -3 4 6 -6 10 -1 12 19 8 21 -4 26 -2 21 10 -4 12 -3 13 10 2 8 -7
12 -17 8 -23 -3 -6 -1 -7 6 -3 6 4 9 11 6 16 -3 5 -1 11 5 15 5 3 10 -1 10 -9
0 -11 6 -13 30 -6 23 7 32 5 40 -8 5 -10 10 -12 10 -5 0 14 26 13 49 -1 9 -6
12 -5 8 1 -4 6 4 13 18 15 18 4 25 1 26 -11 0 -11 3 -8 9 7 5 12 12 22 15 22
4 0 4 -4 1 -9 -3 -5 1 -12 10 -15 11 -4 15 -2 11 8 -4 9 0 13 11 11 9 -2 21
-4 25 -4 5 -1 5 -6 1 -12 -4 -8 -9 -7 -15 2 -5 8 -9 9 -9 3 0 -22 13 -23 41
-4 20 15 30 17 35 9 4 -8 3 -9 -4 -5 -8 5 -10 1 -5 -9 4 -11 8 -13 13 -5 4 6
23 9 44 7 31 -4 36 -2 31 12 -3 9 4 5 15 -9 11 -14 18 -18 14 -9 -6 20 11 34
22 18 5 -8 3 -9 -6 -4 -8 5 -11 4 -6 -3 4 -6 13 -9 21 -6 8 4 12 11 9 16 -4 6
6 2 22 -8 15 -11 25 -13 21 -6 -5 6 -5 12 0 13 4 0 16 2 25 4 12 2 15 -3 13
-18 -4 -21 -4 -21 10 -4 10 14 18 16 31 9 10 -6 29 -6 46 -2 27 8 32 6 29 -13
-1 -5 3 -6 9 -2 5 3 10 14 10 23 0 13 2 13 16 -4 12 -15 14 -15 11 -2 -4 11
-1 15 11 13 9 -2 21 -4 25 -4 5 -1 5 -6 1 -12 -4 -8 -9 -7 -15 2 -5 8 -9 9 -9
3 0 -20 12 -23 35 -8 21 14 24 14 34 -3 6 -10 11 -13 11 -6 0 7 15 10 40 9 30
-2 40 1 36 10 -3 8 0 11 9 7 8 -3 13 -8 11 -12 -2 -3 16 -4 41 -2 36 2 44 0
37 -10 -6 -11 -5 -12 8 -2 8 7 19 9 23 5 5 -4 5 -1 1 6 -4 7 -12 9 -18 6 -7
-4 -8 -2 -4 4 9 15 46 -2 46 -21 0 -9 2 -9 8 0 8 13 29 12 51 -1 9 -6 12 -5 7
2 -10 17 37 19 52 2 11 -13 11 -13 6 1 -3 10 0 20 7 25 7 4 10 3 6 -3 -4 -6 0
-14 9 -17 8 -3 13 -2 10 3 -3 5 1 11 9 15 8 3 17 0 21 -5 3 -6 15 -9 25 -6 11
3 23 -2 29 -11 5 -10 10 -12 10 -5 0 7 10 12 23 11 36 -1 48 1 43 10 -3 5 1 9
8 9 8 0 11 -8 8 -21 -5 -18 -4 -18 10 -5 9 7 13 19 10 24 -2 6 1 4 9 -3 15
-14 55 -16 64 -2 3 5 12 7 20 4 8 -4 12 -11 9 -16 -4 -6 -10 -5 -15 3 -5 8 -9
9 -9 3 0 -18 13 -24 27 -13 10 9 17 8 30 -2 11 -10 14 -10 9 -1 -4 7 -1 12 9
12 10 0 14 5 10 12 -4 7 3 2 14 -11 16 -17 21 -19 21 -8 0 21 17 31 26 16 5
-8 3 -9 -6 -4 -8 5 -11 4 -7 -2 7 -12 37 -11 57 2 8 5 23 10 32 10 14 1 15 -1
6 -12 -9 -11 -13 -12 -19 -1 -6 9 -9 9 -9 1 0 -17 17 -25 25 -12 4 5 14 8 22
5 10 -4 13 -2 10 7 -3 8 1 14 9 14 7 0 10 -5 7 -10 -4 -6 6 -8 25 -4 18 4 31
3 31 -1 -3 -19 2 -23 16 -12 12 10 18 10 32 -1 11 -10 14 -10 9 -1 -4 7 -1 12
9 12 10 0 14 5 10 12 -4 7 3 2 14 -11 16 -17 21 -19 21 -8 0 21 17 31 26 16 5
-8 3 -9 -6 -4 -8 5 -11 4 -7 -2 7 -11 36 -11 54 0 6 4 14 3 17 -1 3 -5 15 -8
28 -7 13 1 29 -3 37 -9 11 -8 13 -8 8 1 -11 18 36 21 51 3 11 -13 11 -13 6 1
-3 10 0 20 7 25 7 4 10 3 6 -3 -4 -6 0 -14 9 -17 11 -4 15 -2 11 8 -6 14 5 15
35 2 9 -4 21 -5 27 -2 5 4 14 -2 20 -11 6 -10 11 -12 11 -5 0 8 10 11 30 7 25
-4 29 -2 23 12 -5 15 -3 14 10 -2 15 -18 16 -19 17 -2 0 10 5 15 10 12 6 -4 8
-10 6 -14 -3 -4 8 -6 23 -3 16 2 39 -1 51 -8 15 -8 20 -8 16 -1 -13 21 3 29
33 18 17 -6 28 -15 25 -19 -3 -4 0 -8 7 -8 7 0 9 8 6 21 -5 20 -5 20 15 2 12
-10 18 -12 14 -5 -4 7 -1 12 9 12 9 0 13 -4 10 -10 -3 -6 1 -7 9 -4 9 3 16 11
16 16 0 6 8 0 18 -13 13 -15 21 -19 26 -10 4 7 2 10 -4 9 -7 -2 -14 5 -15 15
-3 15 -1 16 11 6 11 -9 14 -8 14 5 0 16 1 16 16 2 21 -21 23 -20 17 7 -4 19
-3 20 7 5 6 -10 16 -18 21 -18 6 0 7 5 4 10 -3 6 -1 10 4 10 6 0 11 -4 11 -9
0 -5 7 -12 16 -15 8 -3 13 -2 10 3 -5 7 47 36 66 36 3 0 10 3 13 7 4 4 16 3
26 -2 13 -8 26 -5 49 8 16 10 27 22 23 26 -4 4 1 4 11 0 14 -5 17 -4 11 5 -6
10 -3 11 14 2 18 -10 20 -9 14 6 -5 13 -3 15 12 10 16 -7 16 -5 4 10 -8 9 -9
14 -2 10 7 -4 17 0 23 10 9 15 10 14 5 -7 l-5 -25 12 25 c15 30 29 41 43 32 5
-3 3 3 -5 13 -14 17 -14 18 10 5 24 -13 24 -12 10 5 -8 10 -9 16 -3 11 7 -4
20 2 30 13 9 11 21 17 26 14 6 -3 7 -1 3 5 -7 11 6 17 28 13 5 -1 4 5 -4 13
-10 14 -10 16 6 17 11 1 22 1 25 1 3 -1 6 5 6 13 0 8 -5 11 -10 8 -6 -4 -7 -1
-3 6 5 7 13 10 20 8 7 -3 13 3 13 14 1 12 -3 16 -15 12 -14 -4 -14 -3 -2 5 8
6 17 9 21 6 4 -2 10 0 14 6 4 6 11 7 17 4 6 -4 6 2 -1 15 -10 17 -9 21 4 21
10 0 13 -5 9 -12 -4 -7 -3 -8 5 -4 6 4 9 12 5 17 -3 5 0 17 8 26 7 9 14 28 14
42 3 41 3 43 14 36 6 -3 10 -2 10 4 0 5 -6 12 -12 14 -8 3 -6 6 5 6 18 1 20 7
19 54 0 15 3 25 8 22 5 -3 12 0 16 6 5 8 3 9 -6 4 -8 -5 -11 -3 -8 6 3 8 11
13 17 11 9 -2 9 3 1 18 -13 25 -21 26 -14 3 5 -15 4 -15 -4 -3 -13 17 -5 33
14 26 8 -3 11 0 7 9 -3 8 -9 13 -13 10 -5 -3 -12 -1 -15 5 -4 6 -3 10 2 9 20
-3 27 2 13 11 -10 6 -11 10 -2 10 6 0 12 8 12 18 0 15 -2 15 -11 2 -9 -13 -10
-13 -6 1 3 9 0 22 -6 29 -10 10 -7 10 10 1 19 -10 21 -9 18 10 -2 12 -12 27
-22 35 -17 12 -16 13 4 9 16 -3 20 0 16 11 -3 7 -8 12 -12 9 -4 -2 -8 2 -8 10
0 8 4 12 9 9 4 -3 8 -1 8 5 0 5 -6 12 -12 14 -9 4 -9 6 1 6 11 1 10 5 -5 17
-10 8 -13 13 -7 9 7 -3 21 -1 30 5 17 11 17 11 1 6 -10 -3 -18 -1 -18 5 0 6
-4 8 -8 5 -5 -3 -8 13 -8 35 1 30 -2 38 -13 34 -11 -4 -11 -2 -2 9 9 11 8 17
-4 29 -9 10 -11 18 -5 22 6 4 8 11 4 16 -4 6 -11 6 -20 -2 -17 -14 -19 2 -2
19 8 8 8 12 1 12 -6 0 -16 13 -23 30 -7 16 -15 28 -19 26 -4 -3 -7 4 -7 14 0
10 4 16 9 13 5 -3 3 4 -5 16 -7 12 -19 21 -26 21 -7 0 -11 4 -7 9 3 5 1 12 -5
16 -6 4 -8 11 -5 16 3 5 -1 6 -9 3 -9 -3 -16 -1 -16 6 0 6 -4 9 -9 6 -5 -3 -9
0 -8 7 1 35 -4 48 -15 41 -9 -5 -8 -2 1 9 12 15 12 17 -3 11 -12 -5 -15 -2 -9
12 5 13 3 15 -8 9 -11 -7 -11 -5 1 10 9 11 10 16 2 11 -11 -7 -17 5 -13 28 1
5 -4 4 -12 -2 -12 -10 -13 -8 -9 13 4 21 1 24 -14 19 -11 -3 -15 -2 -9 3 13
10 13 28 1 40 -5 5 -6 2 -1 -7 6 -12 5 -12 -5 -3 -10 9 -8 16 8 33 13 14 22
18 27 10 5 -8 11 -8 22 2 16 13 73 21 73 9 0 -4 9 -7 21 -8 15 -1 19 2 15 15
-6 16 -5 16 7 0 10 -13 16 -15 25 -6 9 9 15 7 27 -8 14 -18 14 -18 10 4 -3 20
-2 22 10 12 8 -7 12 -17 9 -24 -3 -6 4 0 15 13 l21 23 1 -23 c0 -23 1 -23 9
-4 6 13 9 15 9 5 1 -13 2 -13 11 0 6 10 10 11 10 3 0 -7 5 -13 11 -13 5 0 8 4
4 9 -3 5 0 13 6 17 7 4 9 3 5 -4 -3 -6 -2 -13 4 -17 5 -3 10 2 10 12 1 14 4
13 15 -7 8 -14 14 -20 15 -15 0 6 23 10 55 10 44 -1 52 1 43 12 -9 11 -7 12 8
6 10 -3 22 -11 25 -16 3 -5 9 -1 12 8 4 9 3 14 -1 11 -5 -3 -9 1 -9 9 0 13 3
13 17 0 18 -16 35 -9 22 10 -4 6 1 2 11 -8 9 -11 17 -15 17 -10 0 5 14 10 31
11 22 2 28 -1 23 -10 -6 -10 -5 -11 7 -1 12 10 18 10 28 0 10 -9 11 -9 6 4 -4
10 -1 20 6 25 8 4 10 3 5 -4 -4 -7 -3 -12 2 -12 6 0 13 7 16 16 5 14 9 14 23
3 14 -12 16 -12 9 0 -7 10 -3 12 14 6 16 -5 20 -4 16 4 -4 6 -4 11 1 10 4 -1
22 -1 38 0 20 1 26 4 17 10 -9 6 1 12 33 20 32 8 49 18 55 34 5 12 9 16 9 8 1
-11 5 -10 16 5 14 19 14 19 15 -1 1 -18 2 -19 9 -2 4 10 11 18 16 18 6 -1 10
3 10 9 0 5 6 15 14 22 9 8 11 8 7 1 -3 -6 -2 -14 3 -17 5 -4 8 5 6 19 -2 20 1
23 11 15 14 -12 14 4 0 30 -4 8 3 4 15 -10 15 -17 20 -19 16 -7 -5 12 -2 17 8
15 7 -2 14 2 13 7 0 6 -4 9 -9 7 -5 -1 -4 7 3 18 7 11 16 20 21 20 4 0 6 -4 2
-9 -3 -5 -1 -12 4 -16 10 -5 5 40 -5 57 -3 4 2 5 10 2 9 -3 13 -11 9 -17 -3
-6 -1 -7 6 -3 9 6 9 11 1 21 -8 10 -8 15 1 21 8 4 9 3 5 -4 -4 -7 -3 -12 2
-12 17 0 22 13 10 27 -8 11 -7 12 6 7 12 -5 15 -2 9 12 -4 12 -3 15 5 10 7 -4
12 -2 12 4 0 6 5 8 13 4 9 -6 9 -4 -1 8 -11 14 -10 18 4 26 9 5 17 23 18 41 1
28 2 30 13 14 16 -21 17 -9 1 20 -10 19 -9 20 4 10 12 -11 14 -8 10 19 -3 21
-1 29 7 24 6 -4 11 -1 11 8 0 9 -5 16 -11 16 -6 0 -1 9 12 21 17 15 19 19 7
15 -10 -3 -18 -1 -18 4 0 6 5 10 11 10 5 0 8 4 5 9 -4 5 -1 11 5 13 5 2 11 25
12 50 1 26 4 42 8 36 4 -7 5 -16 2 -22 -3 -5 -1 -6 4 -3 6 4 8 18 6 32 -3 13
-9 23 -13 20 -6 -4 -6 13 -1 59 1 5 8 2 18 -5 15 -13 15 -12 3 8 -12 18 -17
20 -30 10 -8 -6 -6 -2 4 11 11 12 15 22 10 22 -5 0 -2 5 6 11 13 9 13 10 0 6
-8 -2 -14 -10 -12 -16 1 -7 -2 -10 -7 -7 -5 3 -7 15 -4 26 3 12 0 20 -6 20 -7
0 -9 5 -4 13 11 18 13 38 2 31 -10 -6 -12 6 -9 50 1 21 -2 26 -12 20 -9 -5 -9
-2 2 11 12 15 12 17 1 10 -11 -6 -13 -3 -8 14 7 29 -1 51 -20 51 -10 0 -14 7
-10 19 3 12 -6 31 -25 52 -17 18 -28 39 -25 49 3 11 -1 17 -12 16 -11 -1 -16
6 -15 22 1 12 -3 22 -7 22 -5 0 -9 -5 -9 -12 0 -6 -2 -9 -5 -6 -10 10 7 38 19
31 6 -3 7 -2 3 3 -5 5 -14 9 -20 9 -14 0 -21 47 -12 82 6 24 6 25 33 7 26 -17
27 -17 10 2 -16 18 -15 19 9 21 16 0 21 -2 14 -7 -9 -5 -4 -9 13 -12 22 -4 24
-3 14 9 -10 12 -7 12 15 2 15 -7 27 -16 27 -21 0 -5 -5 -6 -12 -2 -7 4 -8 3
-4 -5 6 -9 11 -9 22 0 11 9 14 8 15 -7 1 -14 3 -13 9 6 7 21 8 22 9 5 1 -16 3
-17 10 -6 5 8 17 16 25 17 9 1 14 -2 11 -6 -3 -5 4 -8 15 -7 11 1 20 7 20 14
0 6 5 15 12 19 8 5 9 2 5 -9 -3 -9 -1 -19 5 -23 6 -4 8 -3 5 3 -4 6 1 17 10
24 12 10 14 10 9 2 -4 -8 -1 -13 9 -13 9 0 13 4 10 10 -3 6 -1 10 4 10 6 0 11
-5 11 -11 0 -8 6 -7 17 2 9 8 14 9 10 3 -4 -7 2 -11 18 -11 14 0 22 3 20 7 -3
4 2 11 11 14 8 3 13 2 10 -2 -3 -5 1 -9 9 -9 8 0 12 4 10 8 -4 6 30 20 39 16
1 -1 9 3 17 9 8 6 26 11 41 10 21 -1 24 1 16 11 -8 10 -7 12 6 7 11 -4 23 1
32 12 9 11 13 14 10 7 -4 -6 -1 -15 5 -19 8 -4 9 -3 5 4 -4 8 0 12 11 12 15 0
16 2 3 10 -11 7 -11 10 -2 10 8 0 10 5 6 13 -6 9 -5 9 7 0 12 -10 21 -8 44 7
16 10 34 16 39 13 6 -4 5 1 -3 10 -8 10 -11 20 -7 24 3 3 6 2 6 -4 0 -6 8 -14
17 -17 10 -4 14 -4 10 0 -4 4 -1 14 6 23 11 14 10 15 -8 1 -19 -14 -19 -14 -6
3 8 10 21 15 29 12 12 -4 12 -2 3 8 -9 12 -7 14 13 12 18 -2 23 1 19 11 -3 8
0 14 7 14 7 0 10 6 7 14 -8 20 4 28 20 15 9 -9 13 -8 14 0 2 11 5 25 9 39 1 4
2 10 2 13 -1 4 9 15 21 25 12 10 16 12 10 4 -7 -8 -13 -19 -13 -24 0 -6 7 -2
15 8 10 14 12 23 4 32 -12 14 7 14 30 0 9 -6 8 -1 -3 16 -16 24 -13 38 8 38 6
0 4 -5 -4 -11 -10 -7 -11 -9 -2 -7 8 2 12 6 10 10 -2 3 5 15 15 25 9 11 14 22
11 26 -3 3 -2 12 2 19 5 7 9 22 10 33 1 35 15 66 26 59 7 -5 8 -2 4 5 -6 9
-13 8 -29 -6 -22 -18 -22 -18 -4 3 9 11 14 24 10 29 -5 4 -3 5 3 2 7 -4 15 0
18 9 4 10 2 13 -7 9 -6 -4 -4 0 6 8 17 14 24 33 9 23 -5 -3 -9 1 -9 8 0 8 5
12 11 10 6 -2 11 7 11 20 0 16 -4 21 -10 16 -7 -6 -11 -2 -12 11 -1 12 2 17 9
13 7 -5 9 -1 5 9 -3 10 -3 17 2 17 9 0 8 31 -3 48 -4 6 -2 12 3 12 6 0 11 5
11 10 0 6 -5 9 -11 8 -6 -2 -14 3 -16 10 -3 8 1 10 11 6 12 -5 15 -2 10 10 -3
9 -11 13 -17 9 -5 -3 -7 -1 -3 5 3 5 3 12 -1 15 -5 2 -3 2 4 1 6 -2 14 3 17
11 3 10 0 12 -11 8 -12 -5 -14 -3 -8 8 7 11 6 12 -6 2 -12 -10 -15 -8 -15 7 0
10 3 17 6 15 3 -2 7 5 7 16 2 18 0 19 -14 7 -13 -10 -15 -10 -9 0 4 7 2 20 -6
30 -12 15 -11 16 4 4 12 -10 18 -10 24 -1 5 8 3 9 -6 4 -10 -6 -12 -4 -7 7 8
22 -3 30 -20 16 -11 -9 -12 -7 -7 7 6 14 4 16 -6 10 -9 -6 -11 -4 -6 4 5 7 15
10 25 7 12 -5 12 -3 -3 9 -10 8 -23 12 -29 8 -6 -3 -7 -1 -3 5 4 6 13 9 20 6
8 -3 17 -1 21 5 3 6 0 9 -8 5 -8 -3 -18 0 -22 5 -3 6 -11 8 -17 5 -6 -4 -8 -2
-4 4 3 5 3 12 -1 15 -5 2 -2 2 5 1 6 -2 12 1 12 6 0 6 -10 10 -22 10 -18 0
-20 2 -8 10 13 8 13 11 1 22 -8 7 -11 8 -8 2 3 -6 0 -11 -8 -11 -13 0 -12 4 2
19 15 17 15 18 -7 18 -19 0 -21 2 -10 15 7 9 10 18 6 22 -3 3 -6 1 -6 -5 0
-18 -16 -15 -18 3 -1 8 -3 22 -4 30 -1 8 -5 12 -10 9 -4 -3 -8 2 -8 10 0 8
-12 27 -27 42 -26 26 -26 27 -7 41 13 10 15 14 4 13 -28 -4 -41 0 -35 10 4 6
12 7 18 4 7 -4 8 -3 4 2 -5 5 -12 9 -15 9 -18 1 -30 17 -24 37 4 18 2 20 -19
15 -23 -6 -23 -5 -5 8 17 13 18 15 3 15 -18 0 -19 1 -21 40 -2 34 -15 52 -32
46 -7 -3 -16 0 -20 6 -4 7 -3 8 4 4 13 -8 15 4 6 28 -3 9 -12 12 -22 8 -15 -5
-16 -4 -2 13 14 17 14 18 -6 7 -16 -9 -21 -8 -21 3 0 8 4 12 9 9 4 -3 8 0 8 5
0 6 -7 11 -15 11 -8 0 -15 5 -15 11 0 5 5 7 12 3 7 -4 8 -3 4 5 -4 6 -12 9
-17 6 -5 -4 -9 1 -9 10 0 10 -5 14 -12 9 -10 -6 -10 -4 0 7 18 20 15 34 -5 18
-11 -10 -14 -10 -9 -1 4 7 2 12 -6 12 -9 0 -9 3 2 10 12 8 10 10 -8 10 -13 0
-20 4 -17 10 4 6 10 8 15 5 5 -3 12 0 16 6 4 8 3 9 -4 5 -7 -4 -12 -2 -12 4 0
7 -7 10 -14 7 -10 -4 -13 -1 -9 9 3 8 -3 21 -13 30 -17 12 -17 13 -1 8 9 -3
17 -1 17 5 0 6 -3 10 -7 10 -25 -4 -32 3 -29 31 2 16 -1 27 -6 24 -5 -3 -7
-12 -4 -20 3 -7 1 -16 -5 -19 -5 -4 -9 -3 -8 2 4 26 -3 62 -17 79 -15 18 -15
18 -5 -3 6 -12 7 -24 3 -27 -5 -3 -9 0 -10 7 0 7 -3 21 -6 32 -2 11 -5 24 -5
28 -1 5 -7 5 -13 1 -10 -6 -10 -4 0 8 9 12 10 18 2 23 -6 4 -9 14 -5 22 4 13
3 14 -10 3 -11 -9 -15 -9 -15 -1 0 7 -4 10 -8 7 -4 -2 -14 5 -22 17 -12 20
-12 21 4 8 14 -12 16 -12 10 3 -3 9 -13 16 -20 16 -12 0 -13 4 -3 23 11 20 11
21 -5 7 -16 -13 -18 -12 -16 5 4 37 0 45 -22 45 -19 0 -20 2 -8 10 10 6 11 10
3 10 -7 0 -13 5 -13 11 0 5 6 7 13 3 6 -4 4 2 -6 13 -9 11 -14 23 -10 28 5 4
2 5 -5 1 -10 -6 -10 -11 -2 -21 8 -10 8 -15 -1 -21 -7 -4 -9 -3 -6 3 4 6 0 16
-8 23 -11 9 -12 17 -4 32 6 11 8 22 5 26 -3 3 -6 0 -6 -7 0 -9 -4 -8 -15 3 -8
8 -15 20 -15 26 0 6 -6 8 -12 4 -10 -5 -10 -4 0 7 10 11 8 16 -10 27 -13 7
-15 11 -6 8 10 -3 20 0 24 6 4 7 3 8 -4 4 -11 -7 -17 6 -13 27 1 5 -3 6 -9 2
-6 -3 -8 -11 -5 -16 4 -5 1 -9 -5 -9 -6 0 -8 12 -5 32 l6 32 -23 -19 c-13 -11
-17 -13 -10 -5 15 17 16 34 1 24 -8 -4 -8 0 0 15 7 11 8 21 3 21 -4 0 -17 7
-28 16 -10 8 -13 13 -6 9 6 -3 12 -1 12 4 0 6 -8 11 -17 11 -15 0 -16 2 -3 10
13 8 12 10 -4 10 -14 0 -17 5 -13 21 4 14 2 19 -8 15 -20 -7 -27 5 -12 22 10
13 9 15 -4 10 -13 -5 -16 -2 -12 13 3 11 0 19 -6 19 -7 0 -9 -5 -5 -12 4 -7 3
-8 -5 -4 -6 4 -20 25 -32 47 -11 22 -24 37 -29 34 -6 -4 -10 -4 -10 0 0 3 10
10 23 15 l22 9 -22 0 c-12 1 -25 5 -28 11 -4 6 1 7 12 4 17 -5 17 -5 1 9 -10
8 -18 19 -18 26 0 6 -6 11 -12 11 -10 0 -9 3 1 9 11 7 9 10 -9 16 -18 6 -20 9
-9 16 11 7 11 9 1 9 -7 0 -10 5 -7 10 3 6 -3 10 -14 10 -12 0 -21 5 -21 11 0
5 6 7 13 4 6 -4 4 0 -5 8 -10 7 -19 28 -20 46 -1 18 -8 37 -15 43 -7 6 -10 15
-6 21 3 6 1 7 -6 3 -9 -6 -9 -11 0 -22 6 -8 7 -14 3 -14 -5 0 -15 9 -22 21 -8
12 -9 18 -3 14 6 -3 11 1 11 10 0 9 -4 13 -10 10 -5 -3 -10 1 -10 9 0 9 -5 16
-11 16 -5 0 -7 5 -3 12 4 6 3 8 -3 5 -6 -4 -19 0 -29 8 -18 15 -18 15 1 8 17
-6 18 -4 8 9 -7 8 -9 19 -5 24 4 4 0 3 -10 -4 -12 -10 -18 -10 -24 -1 -4 7 -3
10 2 7 5 -3 15 1 22 8 12 13 9 14 -15 9 -19 -5 -24 -4 -14 3 10 7 11 14 2 28
-6 11 -11 16 -11 12 0 -4 -9 0 -20 10 -19 16 -19 18 -3 29 15 12 15 13 -5 13
-13 0 -22 6 -22 15 0 8 -5 15 -12 15 -6 0 -9 2 -6 5 9 10 38 -7 31 -18 -4 -6
-1 -7 6 -2 15 9 -20 45 -44 45 -9 0 -14 4 -10 10 3 5 11 8 18 6 7 -1 9 -1 4 1
-4 3 -5 9 -1 14 3 5 2 9 -3 8 -4 -1 -17 -1 -28 1 l-20 1 20 9 c16 7 16 9 4 9
-9 1 -20 9 -24 19 -5 14 -4 15 6 5 7 -7 18 -13 23 -13 6 0 0 7 -12 16 -12 8
-20 19 -17 24 3 5 -4 12 -16 15 -19 6 -20 7 -2 21 17 12 17 13 -4 9 -13 -2
-26 1 -29 7 -4 7 -2 8 4 4 7 -4 12 -3 12 2 0 5 -10 14 -22 21 -16 8 -17 10 -4
6 15 -4 17 -3 8 8 -7 8 -8 17 -4 22 4 4 -2 3 -14 -3 -16 -9 -21 -8 -21 3 0 8
4 12 9 9 16 -10 8 24 -9 37 -17 13 -17 13 -3 -6 14 -19 14 -19 -3 -6 -14 11
-15 16 -5 29 10 13 10 14 1 8 -8 -4 -13 -2 -13 6 0 7 -9 19 -20 26 -12 7 -18
17 -15 22 4 6 -1 13 -9 16 -9 3 -16 10 -16 16 0 5 5 6 11 3 6 -4 5 2 -2 13 -7
12 -17 18 -21 16 -4 -3 -8 1 -8 9 0 8 -6 17 -14 20 -9 4 -12 14 -9 25 3 13 -3
25 -19 36 -12 9 -23 20 -23 24 0 4 -4 6 -9 4 -5 -2 -4 3 3 11 9 12 9 16 0 19
-7 2 -13 15 -14 29 -1 16 -8 25 -23 27 -12 2 -22 8 -22 13 0 6 4 8 9 5 5 -4 7
3 4 14 -3 10 -14 22 -25 26 -15 4 -17 8 -8 14 13 8 7 15 -50 61 -14 11 -19 18
-12 14 6 -3 12 -1 12 4 0 10 -13 15 -31 13 -3 -1 -6 6 -6 13 0 11 4 12 13 4 8
-7 14 -7 19 1 4 6 1 9 -7 8 -7 -2 -12 3 -10 10 2 10 -2 10 -19 2 -19 -10 -20
-10 -10 8 9 18 8 19 -12 15 -18 -4 -19 -3 -7 6 12 9 11 11 -8 11 -13 0 -20 4
-17 10 3 6 -3 10 -14 10 -12 0 -21 5 -21 11 0 5 6 7 13 3 6 -4 1 5 -13 18 -14
14 -27 23 -30 21 -3 -3 4 -11 14 -19 11 -8 16 -14 10 -14 -5 0 -27 16 -48 36
-22 20 -45 33 -54 29 -10 -3 -12 0 -9 10 4 8 2 17 -3 20 -6 4 -10 -1 -10 -9 0
-8 -5 -18 -10 -21 -6 -4 -9 -1 -8 7 2 7 -3 12 -11 10 -12 -3 -12 0 -2 12 10
12 9 14 -8 9 -13 -3 -21 -1 -21 6 0 7 -9 11 -20 9 -10 -2 -26 6 -35 17 -9 13
-13 14 -10 4 4 -10 0 -16 -10 -16 -9 0 -14 6 -11 13 3 7 -2 10 -15 7 -14 -4
-19 0 -20 13 0 18 -1 18 -9 -1 -7 -16 -9 -17 -9 -3 -1 9 -6 20 -13 24 -6 4 -8
3 -5 -3 4 -6 -4 -13 -18 -15 -16 -4 -25 0 -28 11 -4 13 -5 13 -6 -1 0 -10 -6
-18 -12 -18 -5 0 -7 5 -3 12 4 7 3 8 -5 4 -6 -4 -19 -2 -27 5 -12 10 -15 10
-12 -1 2 -7 -3 -15 -11 -18 -8 -2 -11 0 -8 5 3 5 -6 8 -23 5 -18 -2 -27 -9
-23 -15 3 -6 1 -7 -6 -3 -6 4 -9 11 -6 16 3 5 1 11 -5 15 -5 3 -10 -1 -10 -9
0 -8 -5 -18 -12 -22 -6 -4 -8 -3 -5 3 5 7 -10 11 -42 10 -41 0 -48 -3 -43 -16
5 -14 3 -14 -11 -2 -15 12 -17 11 -17 -5 0 -11 -4 -15 -8 -9 -4 6 -13 11 -21
13 -12 3 -12 1 0 -14 9 -12 9 -15 2 -10 -7 4 -19 4 -25 -1 -12 -7 -23 -9 -77
-15 -8 -1 -16 -10 -19 -20 -2 -10 -8 -15 -13 -12 -5 3 -6 10 -3 16 4 7 2 8 -5
4 -6 -4 -9 -12 -6 -17 4 -5 -3 -9 -14 -9 -19 0 -26 -11 -22 -33 1 -5 -3 -6 -9
-2 -6 3 -8 10 -6 14 3 3 -4 7 -14 7 -10 0 -18 -3 -18 -6 1 -3 -4 -17 -10 -32
-10 -24 -27 -33 -54 -29 -5 0 -8 -4 -8 -10 0 -6 7 -8 16 -5 14 5 15 4 4 -9
-10 -12 -16 -13 -27 -4 -11 9 -12 9 -8 -4 4 -8 1 -18 -4 -22 -6 -3 -8 -11 -5
-17 4 -7 2 -8 -4 -4 -7 4 -22 9 -34 11 -23 4 -23 4 2 -17 14 -12 18 -19 10
-16 -8 3 -21 -1 -28 -8 -7 -8 -10 -14 -6 -14 4 0 -2 -10 -14 -23 -12 -13 -19
-27 -15 -32 5 -4 -3 -2 -17 5 l-25 13 20 -22 c11 -12 15 -22 10 -21 -25 5 -35
-2 -35 -24 0 -14 -4 -28 -10 -31 -6 -4 -7 1 -4 12 5 15 4 15 -4 3 -8 -10 -7
-18 0 -28 6 -7 7 -12 2 -10 -5 1 -19 -6 -31 -17 -18 -15 -20 -22 -10 -34 10
-12 9 -13 -2 -6 -11 6 -13 4 -8 -7 4 -12 0 -15 -18 -13 -14 1 -22 -2 -18 -8 3
-5 0 -7 -8 -5 -8 3 -13 11 -11 17 1 7 -3 9 -9 6 -7 -5 -7 -11 -1 -17 6 -6 8
-16 5 -24 -3 -9 -12 -4 -30 16 -14 17 -30 30 -36 30 -6 0 -1 -7 11 -16 22 -15
30 -44 12 -44 -5 0 -6 7 -3 17 5 12 3 14 -8 8 -8 -4 -11 -5 -7 0 4 4 -3 16
-15 27 -12 11 -16 17 -9 13 6 -3 12 -1 12 4 0 6 -6 11 -12 11 -9 0 -8 4 2 10
13 8 12 10 -2 10 -10 0 -19 5 -19 10 -1 6 -2 16 -3 23 -1 6 -9 11 -19 11 -9
-1 -17 2 -17 7 0 5 6 9 14 9 8 0 17 4 20 9 3 5 -2 8 -12 7 -12 -1 -16 5 -15
22 2 12 -2 22 -8 22 -5 0 -7 -4 -4 -10 10 -17 -12 -11 -26 7 -9 11 -10 14 -2
9 9 -5 11 -2 7 8 -4 10 -1 16 7 16 7 0 9 3 6 6 -4 4 -12 2 -20 -4 -10 -8 -16
-6 -26 10 -7 11 -8 17 -2 13 6 -3 11 -2 11 3 0 6 -7 13 -16 16 -9 4 -14 13
-10 22 3 8 2 12 -4 9 -6 -3 -10 1 -10 10 0 10 -5 13 -12 9 -9 -6 -9 -3 0 9 12
14 11 16 -7 12 -12 -2 -19 0 -17 4 3 4 -1 17 -8 27 -11 14 -11 24 -3 39 9 18
8 18 -5 7 -13 -10 -18 -10 -24 -1 -4 8 -3 9 4 5 7 -4 12 -3 12 2 0 6 -7 12
-15 16 -8 3 -14 11 -13 17 2 6 -6 12 -17 13 -27 3 -64 36 -58 51 2 7 -9 19
-26 26 -21 10 -27 17 -20 25 7 8 6 15 -2 20 -8 4 -9 3 -5 -4 4 -7 1 -12 -7
-12 -8 0 -19 10 -26 23 -6 12 -10 15 -7 6 2 -9 -2 -16 -9 -16 -7 0 -11 7 -7
15 4 12 -1 14 -20 10 -26 -5 -30 4 -14 32 7 12 6 13 -5 3 -18 -17 -49 -16 -49
1 0 10 -7 12 -22 8 -16 -4 -19 -2 -13 8 5 8 4 11 -3 7 -15 -10 -43 3 -36 17 3
6 -2 2 -10 -8 -9 -11 -16 -14 -16 -7 0 7 -5 9 -12 5 -7 -5 -8 -3 -3 6 6 10 4
12 -8 7 -11 -4 -17 -1 -17 8 0 19 -17 28 -26 14 -4 -8 -3 -9 4 -5 7 4 12 2 12
-3 0 -6 -7 -11 -15 -11 -8 0 -15 5 -15 11 0 8 -6 7 -17 -2 -9 -8 -14 -9 -10
-3 4 7 -5 11 -24 12 -16 0 -27 -2 -25 -6 2 -4 -13 -7 -34 -7 -21 0 -36 3 -34
7 7 11 -40 5 -48 -7 -5 -6 -8 -5 -8 4 0 11 -3 11 -17 0 -9 -8 -14 -9 -10 -3 4
7 -2 12 -18 12 -14 0 -22 -4 -19 -9 3 -5 0 -9 -5 -9 -6 0 -11 4 -11 9 0 5 -7
12 -16 15 -13 5 -14 4 -6 -7 9 -10 8 -14 -3 -14 -8 0 -15 4 -15 9 0 5 -5 6
-10 3 -8 -5 -7 -12 2 -23 10 -12 8 -12 -14 2 -26 17 -27 17 -24 -1 3 -15 -2
-19 -27 -18 -43 2 -57 -4 -58 -24 0 -13 -1 -14 -7 -1 -4 8 -13 16 -20 18 -10
2 -10 -2 -2 -18 9 -16 8 -19 -6 -13 -11 4 -22 -1 -30 -12 -8 -10 -14 -15 -14
-9 0 5 -5 2 -10 -6 -9 -13 -11 -13 -20 0 -8 13 -10 12 -10 -3 0 -10 -4 -16 -9
-12 -5 3 -13 0 -17 -6 -5 -8 -2 -10 7 -5 8 4 3 -1 -10 -12 -15 -12 -21 -24
-16 -32 6 -9 3 -10 -12 -1 -18 9 -20 7 -18 -13 2 -19 -1 -23 -16 -19 -11 3
-19 0 -19 -6 0 -7 5 -9 12 -5 7 4 8 3 4 -5 -4 -6 -12 -9 -17 -6 -5 4 -9 1 -9
-4 0 -6 -5 -11 -11 -11 -5 0 -7 5 -3 12 4 7 3 8 -4 4 -7 -4 -12 -16 -12 -28 0
-18 -2 -19 -17 -7 -15 13 -15 12 -4 -8 10 -20 9 -22 -6 -16 -12 5 -15 2 -10
-10 4 -10 0 -20 -11 -26 -15 -9 -15 -13 -3 -33 l14 -23 -23 20 c-13 11 -20 14
-16 8 4 -7 2 -13 -3 -13 -6 0 -11 -5 -11 -11 0 -5 5 -7 12 -3 7 5 8 3 4 -5 -5
-7 -15 -10 -23 -7 -8 3 -11 2 -8 -3 3 -5 1 -12 -5 -16 -5 -3 -10 -1 -10 4 0 6
-5 11 -10 11 -6 0 -5 -8 2 -19 7 -11 16 -17 22 -14 5 3 6 1 2 -5 -3 -6 -16 -9
-27 -7 -18 4 -19 2 -8 -11 10 -12 10 -15 -2 -12 -8 2 -15 -7 -17 -19 -2 -13
-8 -23 -13 -23 -5 0 -9 -5 -9 -11 0 -5 5 -7 12 -3 7 4 8 3 4 -4 -4 -7 -13 -12
-21 -12 -9 0 -12 -8 -10 -21 3 -17 0 -19 -18 -13 -22 6 -22 6 -2 -10 20 -15
20 -15 -2 -16 -13 0 -23 -5 -23 -11 0 -5 5 -7 10 -4 6 3 10 1 10 -4 0 -6 -4
-11 -10 -11 -5 0 -10 -11 -10 -25 0 -14 -5 -25 -11 -25 -5 0 -7 5 -3 12 4 7 3
8 -5 4 -9 -6 -9 -11 0 -22 10 -12 9 -13 -7 -7 -17 6 -18 5 -4 -12 14 -17 14
-18 -10 -5 -25 13 -25 13 -7 -8 14 -15 15 -22 6 -28 -8 -4 -10 -3 -5 4 4 7 2
12 -3 12 -6 0 -11 -9 -11 -21 0 -13 -8 -23 -21 -26 -11 -3 -18 -11 -16 -17 3
-7 -4 -13 -14 -13 -10 -1 -18 3 -16 9 1 6 -6 12 -16 13 -9 2 -15 -1 -11 -6 3
-5 11 -6 17 -2 7 4 6 0 -2 -10 -16 -20 -22 -22 -19 -4 2 6 -5 11 -16 10 -13
-1 -15 2 -7 10 17 17 13 31 -4 17 -13 -11 -14 -10 -9 4 5 12 2 15 -12 10 -12
-3 -9 1 6 11 25 16 25 16 2 9 -22 -5 -23 -4 -13 15 10 17 9 21 -4 21 -10 0
-13 -5 -9 -12 5 -7 3 -8 -5 -4 -9 6 -8 13 6 28 18 21 18 21 -5 9 -22 -12 -23
-11 -12 9 6 12 9 24 6 28 -3 3 -6 -1 -6 -8 0 -7 -3 -10 -7 -7 -3 4 -13 1 -21
-6 -11 -9 -11 -4 2 16 18 26 18 27 0 28 -11 1 -23 1 -27 0 -5 -1 -5 3 -2 9 4
6 14 9 22 5 13 -4 14 -3 3 10 -7 8 -20 15 -29 16 -12 0 -11 2 4 9 17 7 17 9 3
9 -10 1 -18 8 -18 17 0 8 -4 13 -9 9 -5 -3 -12 -1 -15 4 -4 5 -2 12 4 16 16
10 2 25 -16 18 -12 -5 -15 -1 -10 13 6 22 -46 88 -60 76 -4 -4 -3 0 3 8 8 11
8 18 -2 27 -11 10 -15 10 -18 0 -3 -7 -5 -3 -6 8 -2 42 -5 55 -12 55 -5 0 -5
8 -2 18 6 15 5 15 -11 3 -9 -8 -16 -10 -15 -5 5 27 -4 54 -25 75 -24 25 -46
61 -46 76 0 4 5 1 10 -7 5 -8 10 -10 10 -4 0 6 -7 17 -15 24 -8 7 -12 16 -9
21 3 5 -3 9 -13 9 -15 0 -16 2 -3 10 13 8 12 10 -5 11 -11 1 -24 1 -30 -1 -5
-1 -1 9 10 22 11 13 16 20 11 16 -5 -4 -15 -3 -22 3 -8 6 -21 9 -29 5 -9 -3
-13 -2 -10 4 3 6 13 10 21 10 8 0 14 4 14 10 0 5 -7 7 -15 4 -11 -4 -15 1 -16
17 0 23 -1 23 -9 4 -8 -18 -9 -19 -9 -1 -1 12 -6 16 -15 13 -11 -4 -13 -1 -9
10 4 9 2 14 -3 10 -6 -3 -16 4 -24 16 -12 20 -12 21 3 9 12 -10 17 -10 23 -1
4 8 3 9 -4 5 -6 -4 -17 2 -23 12 -7 12 -19 17 -31 14 -10 -2 -18 1 -18 7 0 7
-4 9 -10 6 -6 -3 -10 4 -10 17 -1 22 -1 22 -15 4 -18 -23 -20 -14 -4 16 6 12
7 18 1 14 -5 -3 -15 1 -22 9 -7 8 -16 12 -21 9 -5 -3 -18 5 -29 18 -16 19 -19
20 -13 4 4 -13 3 -17 -5 -12 -7 4 -12 14 -12 22 0 8 -5 12 -10 9 -6 -4 -7 -12
-3 -18 4 -7 0 -6 -10 2 -18 15 -23 26 -7 16 6 -3 10 -1 10 4 0 15 -13 14 -29
-1 -11 -11 -12 -10 -6 1 6 11 4 13 -8 8 -11 -4 -17 -1 -17 8 0 20 -10 19 -26
-2 -13 -17 -14 -17 -8 0 5 13 1 17 -16 17 -11 0 -19 4 -15 9 3 5 1 12 -4 15
-5 4 -13 1 -17 -5 -5 -8 -3 -9 7 -4 8 5 10 4 6 0 -9 -11 -39 -16 -33 -7 2 4
-3 14 -12 22 -14 13 -15 12 -10 -2 5 -12 1 -15 -17 -14 -13 0 -21 4 -19 8 2 4
-1 10 -7 14 -8 4 -9 3 -5 -4 4 -7 2 -12 -4 -12 -6 0 -9 -4 -6 -8 2 -4 -13 -8
-34 -8 -21 0 -36 4 -33 9 3 5 -15 7 -39 6 -24 -2 -49 0 -55 4 -6 4 -14 3 -18
-3 -4 -6 -11 -8 -16 -4 -5 3 -7 10 -4 15 8 12 1 11 -12 -2z m-228 -107 c-3 -3
-11 0 -18 7 -9 10 -8 11 6 5 10 -3 15 -9 12 -12z m786 -19 c12 -16 12 -17 -2
-6 -9 7 -20 9 -24 5 -5 -4 -5 -1 -1 6 9 16 11 15 27 -5z m214 -213 c3 -6 -1
-7 -9 -4 -18 7 -21 14 -7 14 6 0 13 -4 16 -10z m3200 -120 c3 -5 1 -10 -4 -10
-6 0 -11 5 -11 10 0 6 2 10 4 10 3 0 8 -4 11 -10z m-1192 -95 c-3 -9 -8 -14
-10 -11 -3 3 -2 9 2 15 9 16 15 13 8 -4z m711 -33 c3 -5 -1 -9 -9 -9 -8 0 -12
4 -9 9 3 4 7 8 9 8 2 0 6 -4 9 -8z m-2480 -182 c-6 -6 -10 -3 -10 10 0 13 4
16 10 10 7 -7 7 -13 0 -20z m3566 -30 c0 -5 -5 -10 -11 -10 -5 0 -7 5 -4 10 3
6 8 10 11 10 2 0 4 -4 4 -10z m-5360 -30 c0 -5 -5 -10 -11 -10 -5 0 -7 5 -4
10 3 6 8 10 11 10 2 0 4 -4 4 -10z m3920 -184 c0 -3 -4 -8 -10 -11 -5 -3 -10
-1 -10 4 0 6 5 11 10 11 6 0 10 -2 10 -4z m1569 -19 c0 -9 -2 -8 -6 1 -2 6
-10 9 -15 6 -7 -4 -8 -2 -4 5 9 13 26 5 25 -12z m-5654 -87 c-3 -5 -11 -10
-16 -10 -6 0 -7 5 -4 10 3 6 11 10 16 10 6 0 7 -4 4 -10z m5705 6 c0 -3 -4 -8
-10 -11 -5 -3 -10 -1 -10 4 0 6 5 11 10 11 6 0 10 -2 10 -4z m-5775 -126 c-3
-5 -11 -10 -16 -10 -6 0 -7 5 -4 10 3 6 11 10 16 10 6 0 7 -4 4 -10z m5932
-172 c-3 -8 -6 -5 -6 6 -1 11 2 17 5 13 3 -3 4 -12 1 -19z m270 -433 c0 -8 -4
-12 -9 -9 -5 3 -6 10 -3 15 9 13 12 11 12 -6z m273 -475 c0 -5 -5 -10 -11 -10
-5 0 -7 5 -4 10 3 6 8 10 11 10 2 0 4 -4 4 -10z m-7205 -188 c-3 -3 -11 0 -18
7 -9 10 -8 11 6 5 10 -3 15 -9 12 -12z m7379 -133 c-3 -5 -10 -7 -15 -3 -5 3
-7 10 -3 15 3 5 10 7 15 3 5 -3 7 -10 3 -15z m90 -127 c3 -5 -1 -9 -9 -9 -8 0
-12 4 -9 9 3 4 7 8 9 8 2 0 6 -4 9 -8z m-7637 -44 c-3 -8 -6 -5 -6 6 -1 11 2
17 5 13 3 -3 4 -12 1 -19z m-180 -280 c2 -17 0 -19 -7 -8 -5 8 -6 18 -4 22 8
12 10 10 11 -14z m8098 -159 c-4 -5 -12 -9 -18 -8 -9 0 -8 2 1 6 6 2 9 10 6
15 -4 7 -2 8 5 4 6 -4 9 -12 6 -17z m-8441 -447 c3 -5 -1 -9 -9 -9 -8 0 -12 4
-9 9 3 4 7 8 9 8 2 0 6 -4 9 -8z m8756 -296 c0 -3 -4 -8 -10 -11 -5 -3 -10 -1
-10 4 0 6 5 11 10 11 6 0 10 -2 10 -4z m-8947 -71 c-3 -9 -8 -14 -10 -11 -3 3
-2 9 2 15 9 16 15 13 8 -4z m8891 -237 c-3 -4 -11 -8 -17 -7 -9 0 -9 2 0 5 7
3 9 13 6 22 -4 14 -3 14 5 2 6 -8 8 -18 6 -22z m-4 -32 c0 -2 -6 -9 -14 -15
-11 -9 -16 -9 -22 0 -4 8 -3 9 4 5 7 -4 12 -2 12 3 0 6 5 11 10 11 6 0 10 -2
10 -4z m-9095 -86 c-3 -5 -12 -10 -18 -10 -7 0 -6 4 3 10 19 12 23 12 15 0z
m-53 -67 c-6 -2 -9 -10 -6 -15 4 -7 2 -8 -5 -4 -13 9 -5 26 12 25 9 0 8 -2 -1
-6z m9032 -9 c3 -8 2 -12 -4 -9 -6 3 -10 10 -10 16 0 14 7 11 14 -7z m-144
-138 c0 -2 -8 -10 -17 -17 -16 -13 -17 -12 -4 4 13 16 21 21 21 13z m-599
-413 c13 -16 12 -17 -3 -4 -10 7 -18 15 -18 17 0 8 8 3 21 -13z m37 -78 c-3
-3 -9 2 -12 12 -6 14 -5 15 5 6 7 -7 10 -15 7 -18z m-8897 -354 c-6 -10 -7
-22 -3 -26 4 -5 1 -5 -6 -1 -9 5 -9 12 -2 27 6 10 13 19 16 19 2 0 0 -8 -5
-19z m-121 -205 c0 -2 -7 -7 -16 -10 -8 -3 -12 -2 -9 4 6 10 25 14 25 6z
m8675 -395 c-9 -8 -36 -10 -30 -2 2 4 11 8 20 8 8 0 13 -3 10 -6z m-858 -123
c-3 -8 -6 -5 -6 6 -1 11 2 17 5 13 3 -3 4 -12 1 -19z m368 12 c3 -6 -1 -7 -9
-4 -18 7 -21 14 -7 14 6 0 13 -4 16 -10z m-8505 -70 c0 -5 -5 -10 -11 -10 -5
0 -7 5 -4 10 3 6 8 10 11 10 2 0 4 -4 4 -10z m-93 -152 c-3 -8 -6 -5 -6 6 -1
11 2 17 5 13 3 -3 4 -12 1 -19z m8313 -78 c0 -5 -5 -10 -11 -10 -5 0 -7 5 -4
10 3 6 8 10 11 10 2 0 4 -4 4 -10z m120 -270 c0 -5 -5 -10 -11 -10 -5 0 -7 5
-4 10 3 6 8 10 11 10 2 0 4 -4 4 -10z m-8631 -258 c7 -13 6 -19 -2 -19 -7 0
-13 9 -13 19 0 10 1 18 3 18 1 0 7 -8 12 -18z m8635 -140 c3 -5 -1 -9 -9 -9
-8 0 -12 4 -9 9 3 4 7 8 9 8 2 0 6 -4 9 -8z m1 -31 c3 -5 2 -12 -3 -15 -5 -3
-9 1 -9 9 0 17 3 19 12 6z m-8578 -63 c-3 -8 -6 -5 -6 6 -1 11 2 17 5 13 3 -3
4 -12 1 -19z m8538 -28 c3 -6 -1 -7 -9 -4 -18 7 -21 14 -7 14 6 0 13 -4 16
-10z m5 -24 c0 -11 -19 -15 -25 -6 -3 5 1 10 9 10 9 0 16 -2 16 -4z m-190
-216 c0 -5 -5 -10 -11 -10 -5 0 -7 5 -4 10 3 6 8 10 11 10 2 0 4 -4 4 -10z
m-210 -155 c-14 -17 -30 -20 -30 -4 0 5 5 7 10 4 6 -3 13 1 16 10 4 9 9 14 12
11 3 -3 -1 -12 -8 -21z m-7059 -72 c13 -16 12 -17 -3 -4 -10 7 -18 15 -18 17
0 8 8 3 21 -13z m949 11 c0 -8 -19 -13 -24 -6 -3 5 1 9 9 9 8 0 15 -2 15 -3z
m240 0 c0 -8 -19 -13 -24 -6 -3 5 1 9 9 9 8 0 15 -2 15 -3z m240 0 c0 -8 -19
-13 -24 -6 -3 5 1 9 9 9 8 0 15 -2 15 -3z m491 -11 c13 -16 12 -17 -3 -4 -17
13 -22 21 -14 21 2 0 10 -8 17 -17z m320 0 c13 -16 12 -17 -3 -4 -10 7 -18 15
-18 17 0 8 8 3 21 -13z m869 11 c0 -8 -19 -13 -24 -6 -3 5 1 9 9 9 8 0 15 -2
15 -3z m480 0 c0 -8 -19 -13 -24 -6 -3 5 1 9 9 9 8 0 15 -2 15 -3z m720 0 c0
-8 -19 -13 -24 -6 -3 5 1 9 9 9 8 0 15 -2 15 -3z m720 0 c0 -8 -19 -13 -24 -6
-3 5 1 9 9 9 8 0 15 -2 15 -3z m240 0 c0 -8 -19 -13 -24 -6 -3 5 1 9 9 9 8 0
15 -2 15 -3z m240 0 c0 -8 -19 -13 -24 -6 -3 5 1 9 9 9 8 0 15 -2 15 -3z m200
-4 c0 -5 -2 -10 -4 -10 -3 0 -8 5 -11 10 -3 6 -1 10 4 10 6 0 11 -4 11 -10z
m120 0 c0 -5 -2 -10 -4 -10 -3 0 -8 5 -11 10 -3 6 -1 10 4 10 6 0 11 -4 11
-10z m200 0 c0 -5 -2 -10 -4 -10 -3 0 -8 5 -11 10 -3 6 -1 10 4 10 6 0 11 -4
11 -10z m120 0 c0 -5 -2 -10 -4 -10 -3 0 -8 5 -11 10 -3 6 -1 10 4 10 6 0 11
-4 11 -10z m80 4 c0 -8 -19 -13 -24 -6 -3 5 1 9 9 9 8 0 15 -2 15 -3z m240 0
c0 -8 -19 -13 -24 -6 -3 5 1 9 9 9 8 0 15 -2 15 -3z"/>
<path d="M4737 9343 c-10 -9 -9 -23 1 -23 5 0 9 7 9 15 0 17 -1 18 -10 8z"/>
<path d="M4396 9283 c-6 -14 -5 -15 5 -6 7 7 10 15 7 18 -3 3 -9 -2 -12 -12z"/>
<path d="M4183 9153 c4 -3 -1 -12 -11 -20 -15 -13 -15 -13 6 -3 19 9 23 30 5
30 -4 0 -3 -3 0 -7z"/>
<path d="M8237 8863 c-4 -3 -7 -11 -7 -17 0 -6 5 -5 12 2 6 6 9 14 7 17 -3 3
-9 2 -12 -2z"/>
<path d="M8750 8859 c0 -5 5 -7 10 -4 6 3 10 8 10 11 0 2 -4 4 -10 4 -5 0 -10
-5 -10 -11z"/>
<path d="M7291 8847 c2 -1 14 -11 27 -21 12 -11 22 -16 22 -13 0 10 -31 37
-42 37 -6 0 -9 -1 -7 -3z"/>
<path d="M3896 8758 c3 -5 10 -6 15 -3 13 9 11 12 -6 12 -8 0 -12 -4 -9 -9z"/>
<path d="M8006 8733 c-6 -14 -5 -15 5 -6 7 7 10 15 7 18 -3 3 -9 -2 -12 -12z"/>
<path d="M7405 8731 c-6 -11 13 -26 22 -17 4 3 1 6 -6 6 -7 0 -9 5 -6 10 3 6
4 10 1 10 -3 0 -7 -4 -11 -9z"/>
<path d="M7930 8659 c0 -5 5 -7 10 -4 6 3 10 8 10 11 0 2 -4 4 -10 4 -5 0 -10
-5 -10 -11z"/>
<path d="M3802 8573 c2 -11 -2 -17 -10 -15 -8 1 -11 -2 -7 -8 10 -16 35 8 28
26 -7 20 -14 18 -11 -3z"/>
<path d="M7851 8568 c-14 -23 -14 -23 8 -4 22 20 25 26 13 26 -4 0 -13 -10
-21 -22z"/>
<path d="M9110 8586 c0 -2 7 -6 15 -10 8 -3 15 -1 15 4 0 6 -7 10 -15 10 -8 0
-15 -2 -15 -4z"/>
<path d="M9365 8181 c-6 -11 13 -26 22 -17 4 3 1 6 -6 6 -7 0 -9 5 -6 10 3 6
4 10 1 10 -3 0 -7 -4 -11 -9z"/>
<path d="M3476 8008 c3 -5 10 -6 15 -3 13 9 11 12 -6 12 -8 0 -12 -4 -9 -9z"/>
<path d="M9590 7746 c0 -9 30 -14 35 -6 4 6 -3 10 -14 10 -12 0 -21 -2 -21 -4z"/>
<path d="M3276 7668 c3 -5 10 -6 15 -3 13 9 11 12 -6 12 -8 0 -12 -4 -9 -9z"/>
<path d="M9896 7247 c3 -10 9 -15 12 -12 3 3 0 11 -7 18 -10 9 -11 8 -5 -6z"/>
<path d="M9916 7205 c4 -8 8 -15 10 -15 2 0 4 7 4 15 0 8 -4 15 -10 15 -5 0
-7 -7 -4 -15z"/>
<path d="M2755 6789 c-4 -6 -5 -12 -2 -15 2 -3 7 2 10 11 7 17 1 20 -8 4z"/>
<path d="M2683 6643 c4 -3 1 -13 -6 -22 -11 -14 -10 -14 5 -2 16 12 16 31 1
31 -4 0 -3 -3 0 -7z"/>
<path d="M2505 6340 c-3 -5 -1 -10 4 -10 6 0 11 5 11 10 0 6 -2 10 -4 10 -3 0
-8 -4 -11 -10z"/>
<path d="M10595 6061 c-3 -5 -2 -12 3 -15 5 -3 9 1 9 9 0 17 -3 19 -12 6z"/>
<path d="M10685 5891 c-3 -5 -2 -12 3 -15 5 -3 9 1 9 9 0 17 -3 19 -12 6z"/>
<path d="M2193 5789 c-1 -12 -1 -20 0 -18 2 2 9 12 16 22 11 14 11 17 -1 17
-7 0 -14 -10 -15 -21z"/>
<path d="M1630 4820 c0 -5 5 -10 11 -10 5 0 7 5 4 10 -3 6 -8 10 -11 10 -2 0
-4 -4 -4 -10z"/>
<path d="M10375 4590 c-4 -6 -11 -8 -16 -5 -5 4 -9 1 -9 -4 0 -16 16 -13 30 4
7 8 10 15 7 15 -3 0 -9 -5 -12 -10z"/>
<path d="M10063 3935 c0 -8 4 -12 9 -9 5 3 6 10 3 15 -9 13 -12 11 -12 -6z"/>
<path d="M9625 3220 c-3 -6 1 -7 9 -4 18 7 21 14 7 14 -6 0 -13 -4 -16 -10z"/>
<path d="M8870 2899 c0 -5 5 -7 10 -4 6 3 10 8 10 11 0 2 -4 4 -10 4 -5 0 -10
-5 -10 -11z"/>
<path d="M8975 2741 c-3 -5 -2 -12 3 -15 5 -3 9 1 9 9 0 17 -3 19 -12 6z"/>
<path d="M426 2718 c3 -5 10 -6 15 -3 13 9 11 12 -6 12 -8 0 -12 -4 -9 -9z"/>
<path d="M385 2140 c3 -5 11 -10 16 -10 6 0 7 5 4 10 -3 6 -11 10 -16 10 -6 0
-7 -4 -4 -10z"/>
<path d="M554 1849 c-4 -7 -3 -9 4 -5 5 3 13 0 15 -6 4 -9 6 -10 6 -1 1 17
-16 25 -25 12z"/>
<path d="M8730 1739 c0 -5 5 -7 10 -4 6 3 10 8 10 11 0 2 -4 4 -10 4 -5 0 -10
-5 -10 -11z"/>
<path d="M8515 1640 c-4 -6 -11 -8 -16 -5 -5 3 -6 -1 -3 -10 4 -9 7 -15 8 -13
1 2 8 11 15 21 7 9 11 17 8 17 -3 0 -9 -5 -12 -10z"/>
<path d="M8460 1620 c-9 -6 -10 -10 -3 -10 6 0 15 5 18 10 8 12 4 12 -15 0z"/>
<path d="M1095 1590 c3 -5 8 -10 11 -10 2 0 4 5 4 10 0 6 -5 10 -11 10 -5 0
-7 -4 -4 -10z"/>
<path d="M1150 1591 c0 -6 4 -13 10 -16 6 -3 7 1 4 9 -7 18 -14 21 -14 7z"/>
<path d="M1411 1584 c0 -11 3 -14 6 -6 3 7 2 16 -1 19 -3 4 -6 -2 -5 -13z"/>
<path d="M3331 1584 c0 -11 3 -14 6 -6 3 7 2 16 -1 19 -3 4 -6 -2 -5 -13z"/>
<path d="M3651 1584 c0 -11 3 -14 6 -6 3 7 2 16 -1 19 -3 4 -6 -2 -5 -13z"/>
<path d="M4990 1591 c0 -6 4 -13 10 -16 6 -3 7 1 4 9 -7 18 -14 21 -14 7z"/>
<path d="M7870 1591 c0 -6 4 -13 10 -16 6 -3 7 1 4 9 -7 18 -14 21 -14 7z"/>
</g>
</svg>
