<?xml version="1.0" encoding="utf-8"?>
<svg version="1.0" id="Layer_7" xmlns="http://www.w3.org/2000/svg" xmlns:xlink="http://www.w3.org/1999/xlink" x="0px" y="0px"
	 viewBox="0 0 131.74 123.6" style="enable-background:new 0 0 131.74 123.6;"
	 height="18px"
	 width="18px"
	 xml:space="preserve">
<style type="text/css">
	.st0{fill:#EBF5FF;}
	.st1{fill:#CCD8FC;}
</style>
<g>
	<polygon class="st0" points="131.74,0 108.84,31.15 108.81,31.15 121.18,2.11 	"/>
	<polygon class="st1" points="131.74,0 131.74,31.15 108.82,61.87 108.82,31.15 108.82,27.35 128.82,0.71 	"/>
	<polygon class="st0" points="125.08,0 47.22,0 23.24,31.15 104.4,31.15 108.56,31.15 108.82,31.15 131.74,0 	"/>
</g>
<g id="Layer_2">
	<polygon class="st0" points="108.82,61.87 85.91,93.02 85.88,93.02 98.26,63.98 	"/>
	<polygon class="st1" points="108.82,61.87 108.82,93.02 85.9,123.73 85.9,93.02 85.9,89.21 105.9,62.57 	"/>
	<polygon class="st0" points="102.15,61.87 24.3,61.87 0.31,93.02 81.47,93.02 85.63,93.02 85.9,93.02 108.82,61.87 	"/>
</g>
</svg>
