<svg 
width="50" 
height="44" 
aria-hidden="true"
data-slot="icon"
viewBox="0 0 50 44" 
fill="none" 
xmlns="http://www.w3.org/2000/svg">
<path d="M33.421 6.20044C34.5757 4.20044 37.4624 4.20044 38.6171 6.20044L44.7385 16.803C45.8932 18.803 44.4498 21.303 42.1404 21.303H29.8977C27.5883 21.303 26.1449 18.803 27.2996 16.803L33.421 6.20044Z" fill="#ADADAD"/>
<path d="M26.8839 5.59631C28.0386 3.59631 30.9253 3.59631 32.08 5.59631L41.5995 22.0846C42.7542 24.0846 41.3108 26.5846 39.0014 26.5846H19.9624C17.653 26.5846 16.2096 24.0846 17.3643 22.0846L26.8839 5.59631Z" fill="#828282"/>
<path d="M19.0465 4.5C20.2012 2.5 23.0879 2.5 24.2426 4.5L37.7912 27.9668C38.9459 29.9668 37.5025 32.4668 35.1931 32.4668H8.09597C5.78657 32.4668 4.34319 29.9668 5.49789 27.9668L19.0465 4.5Z" fill="#454545"/>
</svg>
