<svg 
  xmlns="http://www.w3.org/2000/svg" 
  xmlns:xlink="http://www.w3.org/1999/xlink" 
  version="1.1" 
  x="0px" 
  y="0px" 
  width="32px"
  height="30px"
  fill="#0959d9"
  viewBox="0 0 100 100" 
  enable-background="new 0 0 100 100">
  <path d="M70,30h-5v-5c0-1.7-1.3-3-3-3H30c-1.7,0-3,1.3-3,3v42c0,1.7,1.3,3,3,3h5v5c0,1.7,1.3,3,3,3h32c1.7,0,3-1.3,3-3V33  C73,31.3,71.7,30,70,30z M30,68c-0.6,0-1-0.4-1-1V25c0-0.6,0.4-1,1-1h32c0.6,0,1,0.4,1,1v5H38c-1.7,0-3,1.3-3,3v35H30z M71,75  c0,0.6-0.4,1-1,1H38c-0.6,0-1-0.4-1-1V33c0-0.6,0.4-1,1-1h32c0.6,0,1,0.4,1,1V75z"/>
</svg>